<svg xmlns="http://www.w3.org/2000/svg" version="1.1" xmlns:xlink="http://www.w3.org/1999/xlink" xmlns:svgjs="http://svgjs.dev/svgjs" width="3000" height="1726" viewBox="0 0 1500 863"><g transform="matrix(1,0,0,1,-0.9090909090909918,-1.266836633828916)"><svg viewBox="0 0 396 228" data-background-color="#ffffff" preserveAspectRatio="xMidYMid meet" height="863" width="1500" xmlns="http://www.w3.org/2000/svg" xmlns:xlink="http://www.w3.org/1999/xlink"><g id="tight-bounds" transform="matrix(1,0,0,1,0.2400000000000091,0.33469148611007427)"><svg viewBox="0 0 395.52 227.33058957923635" height="227.33058957923635" width="395.52"><g><svg viewBox="0 0 395.52 227.33058957923635" height="227.33058957923635" width="395.52"><g><svg viewBox="0 0 395.52 227.33058957923635" height="227.33058957923635" width="395.52"><g id="textblocktransform"><svg viewBox="0 0 395.52 227.33058957923635" height="227.33058957923635" width="395.52" id="textblock"><g><svg viewBox="0 0 395.52 169.60104746317512" height="169.60104746317512" width="395.52"><g transform="matrix(1,0,0,1,0,0)"><svg width="395.52" viewBox="0.9 -24.9 70.75 26.2" height="169.60104746317512" data-palette-color="#ff7c0a"><g class="wordmark-text-0" data-fill-palette-color="primary" id="text-0"><path d="M1.95 1.3L1.95 1.3Q1.75 1.3 1.7 1.13 1.65 0.95 1.65 0.85L1.65 0.85Q1.65 0.5 2.25-0.7 2.85-1.9 3.8-3.5 4.75-5.1 5.75-6.73 6.75-8.35 7.55-9.6 8.35-10.85 8.65-11.35L8.65-11.35Q8-11.2 6.98-10.88 5.95-10.55 4.98-10.03 4-9.5 3.33-8.83 2.65-8.15 2.65-7.25L2.65-7.25Q2.65-6.55 3.08-6.25 3.5-5.95 3.5-5.7L3.5-5.7Q3.5-5.65 3.38-5.63 3.25-5.6 3.2-5.6L3.2-5.6Q2.2-5.6 1.55-6.55 0.9-7.5 0.9-8.4L0.9-8.4Q0.9-9 1.1-9.4L1.1-9.4Q1.7-11.25 3.33-12.28 4.95-13.3 6.95-13.78 8.95-14.25 10.6-14.4L10.6-14.4Q11.45-15.8 12.38-17.2 13.3-18.6 14.15-20L14.15-20Q13.7-20.45 13.7-20.95L13.7-20.95Q13.7-21.3 14.08-21.85 14.45-22.4 14.93-22.9 15.4-23.4 15.7-23.5L15.7-23.5Q15.95-23.6 16.65-23.7 17.35-23.8 17.65-23.8L17.65-23.8 17.8-23.8Q18.1-23.8 18.45-23.7 18.8-23.6 18.8-23.35L18.8-23.35Q18.8-23.15 18.6-22.85 18.4-22.55 18.25-22.4L18.25-22.4Q17.5-21.45 16.7-20.5 15.9-19.55 15.1-18.55L15.1-18.55Q14.3-17.55 13.53-16.53 12.75-15.5 11.95-14.45L11.95-14.45Q12.35-14.5 12.73-14.5 13.1-14.5 13.45-14.5L13.45-14.5Q14.35-14.5 15.28-14.45 16.2-14.4 17.1-14.3L17.1-14.3Q18.05-14.2 19.38-13.95 20.7-13.7 21.9-13.18 23.1-12.65 23.6-11.7L23.6-11.7Q23.85-11.2 23.8-10.8L23.8-10.8Q24.8-12.55 26.15-14.83 27.5-17.1 28.9-19.25 30.3-21.4 31.43-22.93 32.55-24.45 33.1-24.7L33.1-24.7Q33.6-24.9 34.05-24.9L34.05-24.9Q34.25-24.9 34.63-24.83 35-24.75 35-24.5L35-24.5Q35-24.3 34.85-24.08 34.7-23.85 34.6-23.7L34.6-23.7Q32-20.2 29.45-16.65 26.9-13.1 24.65-9.3L24.65-9.3Q23.3-7.05 22.15-4.73 21-2.4 19.9 0L19.9 0Q19.85 0.1 19.73 0.33 19.6 0.55 19.45 0.55L19.45 0.55Q19.25 0.55 19.23 0.33 19.2 0.1 19.2 0.05L19.2 0.05Q19.2-0.35 19.13-0.68 19.05-1 19.15-1.35L19.15-1.35Q19.75-3.1 20.58-4.78 21.4-6.45 22.25-8L22.25-8Q22.4-8.35 22.73-8.9 23.05-9.45 23.45-10.2L23.45-10.2Q23.4-10.3 23.3-10.48 23.2-10.65 22.95-10.75L22.95-10.75Q22.2-11.25 20.98-11.55 19.75-11.85 18.5-11.98 17.25-12.1 16.35-12.1L16.35-12.1Q14.8-12.1 13.43-12.03 12.05-11.95 10.45-11.7L10.45-11.7Q8.6-8.85 6.65-5.88 4.7-2.9 3.05 0.1L3.05 0.1Q2.9 0.3 2.58 0.8 2.25 1.3 1.95 1.3Z" fill="#ff7c0a" data-fill-palette-color="primary"></path><path d="M61.5 0.2L61.5 0.2Q60.55 0.2 60.07-0.35 59.6-0.9 59.6-1.8L59.6-1.8Q59.6-2.7 60.15-4.08 60.7-5.45 61.5-6.98 62.3-8.5 63.07-9.85 63.85-11.2 64.35-12L64.35-12Q63.05-11.4 61.92-10.4 60.8-9.4 59.8-8.4L59.8-8.4Q58.65-7.2 57.77-5.85 56.9-4.5 56.2-3.05L56.2-3.05Q56-2.6 55.82-2.18 55.65-1.75 55.4-1.35L55.4-1.35Q55.2-0.85 54.32-0.4 53.45 0.05 52.95 0.05L52.95 0.05Q52.4 0.05 52.4-0.55L52.4-0.55Q52.4-1.45 52.85-2.83 53.3-4.2 53.97-5.7 54.65-7.2 55.32-8.55 56-9.9 56.45-10.8 56.9-11.7 56.9-11.8L56.9-11.8Q56.9-11.9 56.8-11.9L56.8-11.9Q56.65-11.9 56.45-11.78 56.25-11.65 56.15-11.55L56.15-11.55Q54.65-10.5 53.02-8.7 51.4-6.9 49.97-4.95 48.55-3 47.6-1.4L47.6-1.4Q47.05-0.45 46.32-0.23 45.6 0 44.6 0L44.6 0Q44.95-0.8 45.35-1.55 45.75-2.3 46.1-3L46.1-3Q46.7-4.2 47.2-5.38 47.7-6.55 48.2-7.75L48.2-7.75Q48.6-8.8 49.05-10.23 49.5-11.65 49.5-12.75L49.5-12.75Q49.5-13.05 49.45-13.35 49.4-13.65 49.25-13.9L49.25-13.9Q49.1-14.05 49.1-14.05L49.1-14.05Q49.1-14.35 49.45-14.35L49.45-14.35Q49.75-14.35 50.5-14 51.25-13.65 51.92-13.18 52.6-12.7 52.6-12.3L52.6-12.3Q52.6-11.55 52.02-10.15 51.45-8.75 50.72-7.43 50-6.1 49.5-5.45L49.5-5.45Q49.45-5.4 49.37-5.3 49.3-5.2 49.3-5.1L49.3-5.1 49.35-5.05Q49.45-5.05 50.15-5.93 50.85-6.8 51.92-8.1 53-9.4 54.3-10.73 55.6-12.05 56.9-12.93 58.2-13.8 59.3-13.8L59.3-13.8Q59.85-13.8 60.55-13.53 61.25-13.25 61.25-12.55L61.25-12.55Q61.25-12.35 61.15-12.18 61.05-12 60.95-11.8L60.95-11.8Q59.9-10.4 58.9-9 57.9-7.6 57.05-6L57.05-6Q57.65-6.8 58.85-8.1 60.05-9.4 61.47-10.7 62.9-12 64.3-12.9 65.7-13.8 66.75-13.8L66.75-13.8Q67.3-13.8 68-13.53 68.7-13.25 68.7-12.55L68.7-12.55Q68.7-12.35 68.6-12.18 68.5-12 68.4-11.8L68.4-11.8Q67.85-11.05 66.87-9.78 65.9-8.5 64.87-7 63.85-5.5 63.12-4.15 62.4-2.8 62.4-1.95L62.4-1.95Q62.4-1.05 63.3-1.05L63.3-1.05Q64.05-1.05 65.05-1.8 66.05-2.55 67.12-3.65 68.2-4.75 69.15-5.88 70.1-7 70.72-7.75 71.35-8.5 71.5-8.5L71.5-8.5Q71.65-8.5 71.65-8.3L71.65-8.3Q71.65-8.25 71.22-7.73 70.8-7.2 70.35-6.7 69.9-6.2 69.75-6.05L69.75-6.05Q69.1-5.3 68.12-4.23 67.15-3.15 66.02-2.15 64.9-1.15 63.72-0.48 62.55 0.2 61.5 0.2Z" fill="#6b26ff" data-fill-palette-color="secondary"></path></g></svg></g></svg></g><g transform="matrix(1,0,0,1,75.54432,209.63978434409165)"><svg viewBox="0 0 244.43135999999998 17.690805235144676" height="17.690805235144676" width="244.43135999999998"><g transform="matrix(1,0,0,1,0,0)"><svg width="244.43135999999998" viewBox="8.554548622232 -34.003731342925 610.155451377768 44.168575092925" height="17.690805235144676" data-palette-color="#6b26ff"><path d="M10.75 2.2L10.75 2.2Q10.35 2.2 9.85 1.55 9.35 0.9 9.4 0.3L9.4 0.3Q9.45-0.5 9.85-2 10.25-3.5 10.75-5.05 11.25-6.6 11.65-7.5L11.65-7.5Q11.85-8.3 12.03-8.93 12.2-9.55 12.25-9.75L12.25-9.75Q12.4-9.95 12.73-10.8 13.05-11.65 13.25-12.45L13.25-12.45Q13.35-12.85 13.68-13.98 14-15.1 14.48-16.6 14.95-18.1 15.43-19.55 15.9-21 16.25-22.1 16.6-23.2 16.7-23.55L16.7-23.55Q17.1-24.15 17.3-24.7 17.5-25.25 17.55-25.45L17.55-25.45Q17.85-25.65 17.9-25.98 17.95-26.3 17.95-26.5L17.95-26.5Q17.95-26.75 18.13-26.9 18.3-27.05 18.3-27.25L18.3-27.25Q18.5-27.4 18.55-27.73 18.6-28.05 18.85-28.3L18.85-28.3 19.1-29.15 22.05-29.2Q21.95-28.6 21.75-27.73 21.55-26.85 20.8-25.4L20.8-25.4Q20.55-24.4 20.23-23.6 19.9-22.8 19.95-22.55L19.95-22.55Q19.85-22.45 19.53-21.55 19.2-20.65 18.78-19.35 18.35-18.05 17.93-16.75 17.5-15.45 17.18-14.48 16.85-13.5 16.75-13.25L16.75-13.25Q16.35-12.45 15.85-10.9 15.35-9.35 14.35-6.7L14.35-6.7Q13.95-5.9 13.38-4.3 12.8-2.7 12.45-1.4L12.45-1.4Q11.9 0.55 11.68 1.33 11.45 2.1 11.3 2.18 11.15 2.25 10.75 2.2ZM11.15-27.6L11.15-27.6Q9.75-27.55 9.08-27.75 8.4-27.95 8.6-28.75L8.6-28.75Q8.75-29.35 9.25-29.65 9.75-29.95 10.7-30.1L10.7-30.1Q11.25-30.2 12.13-30.35 13-30.5 13.8-30.65L13.8-30.65Q15.45-30.85 16.53-31 17.6-31.15 18.75-31.25 19.9-31.35 21.65-31.45L21.65-31.45Q23.1-31.55 24.13-31.63 25.15-31.7 25.15-31.7L25.15-31.7Q25.3-31.7 26.2-31.6 27.1-31.5 28.15-31.35 29.2-31.2 29.7-31L29.7-31Q30.85-30.75 31.38-30.3 31.9-29.85 32.1-29L32.1-29Q32.25-28.4 32.1-28.28 31.95-28.15 31.55-27.95L31.55-27.95Q30.4-27.6 29.85-27.6 29.3-27.6 28.6-27.85L28.6-27.85Q28.35-28.1 28.03-28.3 27.7-28.5 26.93-28.63 26.15-28.75 24.5-28.85L24.5-28.85Q23.1-28.7 22.05-28.7 21-28.7 21-28.45L21-28.45 18.05-28.3 15.6-28.05Q15.1-28 14.2-27.93 13.3-27.85 12.45-27.78 11.6-27.7 11.15-27.6ZM35.35-0.1L35.35-0.1Q34.85-0.6 34.35-1.48 33.85-2.35 33.55-3.5L33.55-3.5Q33.45-3.9 33.47-4.6 33.5-5.3 33.45-5.6L33.45-5.6Q33.3-5.25 32.97-4.88 32.65-4.5 32.35-4.25L32.35-4.25Q32.15-4.05 31.45-3.48 30.75-2.9 30.05-2.55L30.05-2.55Q28.4-1.5 27.32-1.4 26.25-1.3 25.3-2.5L25.3-2.5Q24.5-3.15 24.17-3.95 23.85-4.75 24.15-6.15L24.15-6.15Q24.25-7.9 24.65-9.58 25.05-11.25 26.3-14.05L26.3-14.05Q27.35-16.1 27.9-17.07 28.45-18.05 28.6-18.25L28.6-18.25Q29.35-18.5 29.85-18.23 30.35-17.95 30.45-17.25L30.45-17.25Q30.75-16.75 30.37-15.55 30-14.35 29.1-12.6L29.1-12.6Q28.4-10.9 27.82-9.2 27.25-7.5 27.15-6.3 27.05-5.1 27.75-4.85L27.75-4.85Q28.2-4.6 29.32-5 30.45-5.4 31.87-7 33.3-8.6 34.65-11.85L34.65-11.85Q35.05-12.85 35.25-13.63 35.45-14.4 35.5-15.35L35.5-15.35Q35.4-15.95 35.57-16.43 35.75-16.9 36.35-17.25L36.35-17.25Q36.55-17.5 36.9-17.73 37.25-17.95 37.35-17.7L37.35-17.7 38.15-17.75Q38.35-17.8 38.42-17.53 38.5-17.25 38.75-17.05L38.75-17.05Q39.3-16.6 39.05-15.1 38.8-13.6 37.65-10.9L37.65-10.9Q36.7-8.85 36.37-7.8 36.05-6.75 36-5.75L36-5.75Q36-4.85 36.35-4.05 36.7-3.25 37.45-2.6L37.45-2.6Q38-2.25 38.07-1.8 38.15-1.35 38.1-0.75L38.1-0.75Q38-0.3 37.52-0.03 37.05 0.25 36.45 0.25 35.85 0.25 35.35-0.1ZM42.85-1.75L42.85-1.75Q42.4-2.1 42.22-2.45 42.05-2.8 42.2-3.8L42.2-3.8Q42.35-5.2 42.6-6.28 42.85-7.35 43.2-8.75L43.2-8.75Q43.3-9.35 43.77-10.8 44.25-12.25 44.95-13.95 45.65-15.65 46.35-17.18 47.05-18.7 47.55-19.45L47.55-19.45Q47.95-19.75 48.52-19.7 49.1-19.65 49.5-19.25L49.5-19.25Q50.05-18.8 49.67-17.68 49.3-16.55 48.15-14.15L48.15-14.15Q47.55-12.8 47.25-12.13 46.95-11.45 47-11.33 47.05-11.2 47.45-11.45L47.45-11.45Q47.75-12 48.55-12.73 49.35-13.45 50.25-14.15 51.15-14.85 51.95-15.4 52.75-15.95 53.05-16.1L53.05-16.1Q53.45-16.35 53.97-16.53 54.5-16.7 54.7-16.8L54.7-16.8Q55.84-17.35 57.05-17.2 58.25-17.05 58.55-16.3L58.55-16.3Q58.6-15.9 58.87-15.7 59.15-15.5 59.15-15.5L59.15-15.5Q59.35-15.5 59.37-15.35 59.4-15.2 59.4-15.2L59.4-15.2Q59.4-14.85 58.87-14.78 58.35-14.7 57.55-14.65L57.55-14.65Q56.9-14.6 56.4-14.4 55.9-14.2 55.2-13.9L55.2-13.9Q53.3-12.8 51.57-11.75 49.85-10.7 48.25-8.95L48.25-8.95Q47.9-8.55 47.55-8 47.2-7.45 46.8-6.8L46.8-6.8Q46.55-6.55 46.3-5.7 46.05-4.85 45.87-4.08 45.7-3.3 45.7-3.15L45.7-3.15Q45.7-3.15 45.55-2.68 45.4-2.2 45.05-1.75L45.05-1.75Q44.45-0.95 44.05-0.95 43.65-0.95 42.85-1.75ZM77.59-2.3L77.59-2.3Q76.59-2.3 75.94-2.73 75.29-3.15 74.84-4.15L74.84-4.15Q74.64-4.85 74.52-5.73 74.39-6.6 74.39-7.38 74.39-8.15 74.54-8.4L74.54-8.4Q74.74-8.6 74.72-9.13 74.69-9.65 74.69-10.25L74.69-10.25Q74.64-11.25 74.22-11.38 73.79-11.5 72.99-11.05L72.99-11.05Q72.09-10.5 70.64-9.58 69.19-8.65 67.62-7.55 66.04-6.45 64.64-5.25L64.64-5.25Q63.54-4.05 63.32-3.43 63.09-2.8 62.69-2.8L62.69-2.8Q62.29-2.6 62.02-2.78 61.74-2.95 61.24-3.35L61.24-3.35Q60.89-3.75 60.54-4.13 60.19-4.5 60.09-4.7L60.09-4.7Q60.09-4.95 60.24-5.75 60.39-6.55 60.62-7.35 60.84-8.15 60.94-8.4L60.94-8.4Q61.19-8.4 61.37-8.9 61.54-9.4 61.94-10L61.94-10Q62.04-10.6 62.47-11.63 62.89-12.65 63.24-13.45L63.24-13.45Q63.94-14.65 64.22-15.45 64.49-16.25 64.59-17.45L64.59-17.45Q64.54-17.65 64.69-17.82 64.84-18 65.04-18L65.04-18 65.04-18 65.04-18Q65.44-18.4 65.99-18.23 66.54-18.05 66.99-17.45L66.99-17.45Q67.89-16.25 67.72-14.98 67.54-13.7 66.09-11.35L66.09-11.35Q65.74-10.55 65.57-10.13 65.39-9.7 65.39-9.45L65.39-9.45Q65.39-9.45 65.92-9.8 66.44-10.15 67.12-10.63 67.79-11.1 68.19-11.35L68.19-11.35Q68.44-11.6 69.34-12.25 70.24-12.9 71.27-13.53 72.29-14.15 72.79-14.25L72.79-14.25Q73.19-14.45 73.64-14.63 74.09-14.8 74.29-14.8L74.29-14.8Q74.69-14.8 75.32-14.38 75.94-13.95 76.49-13.38 77.04-12.8 77.14-12.4L77.14-12.4Q77.14-12.2 77.17-12 77.19-11.8 77.24-11.6L77.24-11.6Q77.44-10.95 77.47-9.85 77.49-8.75 77.39-7.85 77.29-6.95 77.04-6.8L77.04-6.8Q77.04-6.8 77.07-6.68 77.09-6.55 77.29-6.55L77.29-6.55Q77.29-6.35 77.29-6.33 77.29-6.3 77.29-6.3L77.29-6.3Q77.04-6.3 77.09-5.88 77.14-5.45 77.42-4.95 77.69-4.45 77.99-4.15L77.99-4.15Q78.59-3.55 78.49-3.03 78.39-2.5 77.59-2.3ZM82.94-1.6L82.94-1.6Q82.54-2 82.37-2.6 82.19-3.2 82.24-3.8 82.29-4.4 82.49-4.8L82.49-4.8Q82.49-5.2 82.62-5.43 82.74-5.65 82.69-5.85L82.69-5.85Q82.64-6.05 82.79-6.55 82.94-7.05 83.09-7.5L83.09-7.5Q83.44-8.3 83.84-9.43 84.24-10.55 84.59-11.65 84.94-12.75 85.19-13.55 85.44-14.35 85.49-14.55L85.49-14.55Q85.49-15.15 86.29-15.2L86.29-15.2Q86.89-15.4 87.19-15.23 87.49-15.05 87.99-14.25L87.99-14.25Q88.39-13.85 88.29-13.05 88.19-12.25 87.64-11.05L87.64-11.05Q87.44-10.65 87.17-9.9 86.89-9.15 86.79-8.55L86.79-8.55Q86.59-8.15 86.32-7.43 86.04-6.7 85.84-6.05L85.84-6.05Q85.74-5.8 85.64-5.33 85.54-4.85 85.39-4.33 85.24-3.8 84.99-3.4L84.99-3.4Q84.54-1.35 84.17-1 83.79-0.65 82.94-1.6ZM87.79-21.9L87.79-21.9Q87.54-22.15 87.34-22.63 87.14-23.1 87.09-23.53 87.04-23.95 87.19-23.95L87.19-23.95Q87.59-24 88.14-24.8 88.69-25.6 88.59-26.2L88.59-26.2Q88.59-26.4 88.74-26.58 88.89-26.75 89.09-26.8L89.09-26.8Q89.69-27.2 90.27-26.93 90.84-26.65 91.34-25.85L91.34-25.85Q91.79-24.9 91.59-24.28 91.39-23.65 90.49-22.55L90.49-22.55Q89.74-21.55 89.12-21.45 88.49-21.35 87.79-21.9ZM109.44-2.3L109.44-2.3Q108.44-2.3 107.79-2.73 107.14-3.15 106.69-4.15L106.69-4.15Q106.49-4.85 106.36-5.73 106.24-6.6 106.24-7.38 106.24-8.15 106.39-8.4L106.39-8.4Q106.59-8.6 106.56-9.13 106.54-9.65 106.54-10.25L106.54-10.25Q106.49-11.25 106.06-11.38 105.64-11.5 104.84-11.05L104.84-11.05Q103.94-10.5 102.49-9.58 101.04-8.65 99.46-7.55 97.89-6.45 96.49-5.25L96.49-5.25Q95.39-4.05 95.16-3.43 94.94-2.8 94.54-2.8L94.54-2.8Q94.14-2.6 93.86-2.78 93.59-2.95 93.09-3.35L93.09-3.35Q92.74-3.75 92.39-4.13 92.04-4.5 91.94-4.7L91.94-4.7Q91.94-4.95 92.09-5.75 92.24-6.55 92.46-7.35 92.69-8.15 92.79-8.4L92.79-8.4Q93.04-8.4 93.21-8.9 93.39-9.4 93.79-10L93.79-10Q93.89-10.6 94.31-11.63 94.74-12.65 95.09-13.45L95.09-13.45Q95.79-14.65 96.06-15.45 96.34-16.25 96.44-17.45L96.44-17.45Q96.39-17.65 96.54-17.82 96.69-18 96.89-18L96.89-18 96.89-18 96.89-18Q97.29-18.4 97.84-18.23 98.39-18.05 98.84-17.45L98.84-17.45Q99.74-16.25 99.56-14.98 99.39-13.7 97.94-11.35L97.94-11.35Q97.59-10.55 97.41-10.13 97.24-9.7 97.24-9.45L97.24-9.45Q97.24-9.45 97.76-9.8 98.29-10.15 98.96-10.63 99.64-11.1 100.04-11.35L100.04-11.35Q100.29-11.6 101.19-12.25 102.09-12.9 103.11-13.53 104.14-14.15 104.64-14.25L104.64-14.25Q105.04-14.45 105.49-14.63 105.94-14.8 106.14-14.8L106.14-14.8Q106.54-14.8 107.16-14.38 107.79-13.95 108.34-13.38 108.89-12.8 108.99-12.4L108.99-12.4Q108.99-12.2 109.01-12 109.04-11.8 109.09-11.6L109.09-11.6Q109.29-10.95 109.31-9.85 109.34-8.75 109.24-7.85 109.14-6.95 108.89-6.8L108.89-6.8Q108.89-6.8 108.91-6.68 108.94-6.55 109.14-6.55L109.14-6.55Q109.14-6.35 109.14-6.33 109.14-6.3 109.14-6.3L109.14-6.3Q108.89-6.3 108.94-5.88 108.99-5.45 109.26-4.95 109.54-4.45 109.84-4.15L109.84-4.15Q110.44-3.55 110.34-3.03 110.24-2.5 109.44-2.3ZM119.49 9.55L119.49 9.55Q118.09 10.1 116.56 9.38 115.04 8.65 113.94 7.1L113.94 7.1Q113.74 6.8 113.46 6.18 113.19 5.55 112.96 4.9 112.74 4.25 112.69 3.75 112.64 3.25 112.79 3.15L112.79 3.15Q112.94 3 113.29 3.05 113.64 3.1 113.96 3.3 114.29 3.5 114.39 3.8L114.39 3.8Q114.54 4.15 114.86 4.7 115.19 5.25 115.59 5.7 115.99 6.15 116.19 6.2L116.19 6.2Q117.14 6.65 117.59 6.6 118.04 6.55 118.39 6.3L118.39 6.3Q119.24 5.65 119.79 4.6 120.34 3.55 121.04 1.35L121.04 1.35Q121.59-0.5 122.16-2.58 122.74-4.65 123.19-5.8L123.19-5.8Q123.34-6.4 123.56-6.83 123.79-7.25 123.99-7.45L123.99-7.45 124.29-7.45Q123.19-6.75 122.34-5.85 121.49-4.95 120.19-4.4L120.19-4.4Q119.89-4.05 118.71-3.98 117.54-3.9 116.44-4.25L116.44-4.25Q115.74-4.65 115.41-4.85 115.09-5.05 114.91-5.4 114.74-5.75 114.44-6.5L114.44-6.5Q114.09-7.25 114.34-8.95 114.59-10.65 115.24-12.35L115.24-12.35Q115.84-13.6 116.99-15.05 118.14-16.5 119.44-17.68 120.74-18.85 121.79-19.15L121.79-19.15Q122.19-19.35 122.66-19.43 123.14-19.5 124.04-19.25L124.04-19.25Q124.89-19.15 125.34-18.88 125.79-18.6 126.79-17.75L126.79-17.75Q127.44-17.1 127.86-16.45 128.29-15.8 128.54-15.1L128.54-15.1Q128.89-14.35 128.81-13.73 128.74-13.1 128.24-12.45L128.24-12.45Q127.79-11.8 127.29-11.15 126.79-10.5 126.54-9.35L126.54-9.35Q126.29-7.85 125.74-5.98 125.19-4.1 124.79-2.5L124.79-2.5 123.99 0.6Q122.74 4.85 121.61 6.93 120.49 9 119.49 9.55ZM117.69-6.45L117.69-6.45Q118.69-6.5 119.59-6.85 120.49-7.2 121.34-8.03 122.19-8.85 123.04-10.15L123.04-10.15Q123.89-11.35 124.24-12.68 124.59-14 124.49-15.25L124.49-15.25Q124.44-16.05 124.24-16.3 124.04-16.55 123.39-16.45L123.39-16.45Q122.44-16.3 121.29-15.43 120.14-14.55 119.14-13.25L119.14-13.25Q118.39-12.25 117.89-10.85L117.89-10.85Q117.39-9.35 117.29-8 117.19-6.65 117.69-6.45ZM148.68 1.55L148.68 1.55Q148.33 1 147.11 0.85 145.88 0.7 144.13 0.8L144.13 0.8Q143.43 0.9 142.78 0.73 142.13 0.55 141.76 0.18 141.38-0.2 141.48-0.6L141.48-0.6Q141.53-1.2 142.51-1.55 143.48-1.9 145.63-1.95L145.63-1.95 148.28-2 148.78-3Q148.98-3.55 149.28-4.55 149.58-5.55 149.93-6.7L149.93-6.7Q150.13-7.4 150.53-8.6 150.93-9.8 151.38-11.15 151.83-12.5 152.18-13.58 152.53-14.65 152.63-15.1L152.63-15.1Q152.83-15.55 153.18-16.63 153.53-17.7 153.86-18.82 154.18-19.95 154.28-20.45L154.28-20.45Q155.58-24.4 155.98-26.08 156.38-27.75 156.18-27.8L156.18-27.8Q155.98-27.8 155.21-27.75 154.43-27.7 153.51-27.63 152.58-27.55 151.86-27.45 151.13-27.35 150.98-27.25L150.98-27.25Q150.73-26.9 150.13-27.1 149.53-27.3 149.38-27.8L149.38-27.8Q149.33-28.25 149.36-28.5 149.38-28.75 149.63-28.9L149.63-28.9Q149.98-29.2 150.98-29.58 151.98-29.95 153.26-30.25 154.53-30.55 155.68-30.7L155.68-30.7Q156.53-30.8 157.38-31.08 158.23-31.35 158.73-31.75L158.73-31.75Q159.18-31.9 159.61-32 160.03-32.1 160.48-32.05L160.48-32.05Q160.88-31.8 161.86-31.8 162.83-31.8 163.93-31.85L163.93-31.85Q166.73-32.1 167.71-32 168.68-31.9 169.03-31.2L169.03-31.2Q169.28-30.25 169.13-29.73 168.98-29.2 168.13-29.25L168.13-29.25Q167.68-29.15 166.51-29.08 165.33-29 164.03-28.95L164.03-28.95Q160.48-28.65 160.23-28.25L160.23-28.25Q160.03-28.05 159.91-27.85 159.78-27.65 159.58-27.4L159.58-27.4Q159.63-27.2 159.36-26.13 159.08-25.05 158.68-23.95L158.68-23.95Q158.48-23.3 158.08-22.1 157.68-20.9 157.26-19.63 156.83-18.35 156.48-17.32 156.13-16.3 155.98-15.95L155.98-15.95Q155.78-15.5 155.66-14.98 155.53-14.45 155.48-14.2L155.48-14.2Q154.78-11.75 154.26-10.05 153.73-8.35 153.31-7.08 152.88-5.8 152.53-4.63 152.18-3.45 151.78-2.05L151.78-2.05Q151.78-2.05 152.56-2.13 153.33-2.2 154.63-2.3L154.63-2.3Q156.98-2.55 158.01-2.6 159.03-2.65 159.38-2.48 159.73-2.3 159.88-1.85L159.88-1.85Q160.88-0.5 160.13 0 159.38 0.5 156.58 0.45L156.58 0.45Q153.98 0.55 152.61 0.63 151.23 0.7 150.71 0.85 150.18 1 150.08 1.35L150.08 1.35Q150.08 1.75 149.68 1.75 149.28 1.75 148.68 1.55ZM176.68 0.95L176.68 0.95Q176.03 1.1 175.6 0.78 175.18 0.45 174.98-0.15L174.98-0.15Q174.58-1.3 174.4-2.68 174.23-4.05 174.33-5.1L174.33-5.1 174.43-6.15 172.48-4.6Q170.78-3.1 169.2-2.45 167.63-1.8 166.43-1.8L166.43-1.8Q165.88-1.9 165.33-2.2 164.78-2.5 164.35-2.95 163.93-3.4 163.68-3.9L163.68-3.9Q163.38-4.6 163.5-5.8 163.63-7 164.1-8.43 164.58-9.85 165.3-11.23 166.03-12.6 166.98-13.65L166.98-13.65Q168.63-16.15 170.53-16.7 172.43-17.25 174.28-16.15L174.28-16.15Q175.58-15.6 175.9-15.65 176.23-15.7 176.48-16.8L176.48-16.8Q176.68-17.6 176.88-18.43 177.08-19.25 177.53-20.65L177.53-20.65Q178.78-24.45 179.7-26.6 180.63-28.75 181.38-30.35L181.38-30.35Q181.93-31.5 182.3-31.78 182.68-32.05 183.08-32L183.08-32Q183.63-32 184.08-31.6 184.53-31.2 184.78-30.5L184.78-30.5Q184.98-30.05 184.95-29.73 184.93-29.4 184.63-28.85L184.63-28.85Q183.98-27.65 183.1-25.68 182.23-23.7 181.35-21.35 180.48-19 179.73-16.7 178.98-14.4 178.48-12.65L178.48-12.65Q178.18-11.55 177.95-9.85 177.73-8.15 177.58-6.38 177.43-4.6 177.4-3.23 177.38-1.85 177.48-1.45L177.48-1.45Q177.78-0.45 177.75 0.05 177.73 0.55 177.48 0.73 177.23 0.9 176.68 0.95ZM168.23-4.6L168.23-4.6Q168.93-4.75 169.6-5.15 170.28-5.55 171.03-6.1L171.03-6.1Q172.53-7.25 173.63-8.2 174.73-9.15 175.08-11.1L175.08-11.1Q175.18-12.05 174.9-12.63 174.63-13.2 174.03-13.7L174.03-13.7Q173.43-14.1 172.4-14.03 171.38-13.95 170.28-12.95L170.28-12.95Q169.08-11.85 167.95-10 166.83-8.15 166.28-5.45L166.28-5.45Q166.18-4.95 166.58-4.65 166.98-4.35 168.23-4.6ZM192.03-1.75L192.03-1.75Q190.98-0.85 189.6-0.7 188.23-0.55 186.93-1.13 185.63-1.7 184.78-2.9L184.78-2.9Q183.93-4 183.68-5.43 183.43-6.85 183.63-9.15L183.63-9.15Q183.78-11.1 184.88-13.08 185.98-15.05 187.55-16.6 189.13-18.15 190.68-18.75L190.68-18.75Q191.43-19.25 191.95-19.23 192.48-19.2 193.58-19.1L193.58-19.1Q194.73-18.95 195.3-18.65 195.88-18.35 196.23-17.85L196.23-17.85Q196.98-17.1 197.23-16.38 197.48-15.65 197.48-14.95L197.48-14.95Q197.28-13.85 196-12.28 194.73-10.7 192.68-9.7L192.68-9.7Q191.58-9.35 190.28-9.4 188.98-9.45 188.13-10.05L188.13-10.05Q187.18-10.45 186.88-9.93 186.58-9.4 186.33-7.4L186.33-7.4Q186.13-5.5 186.63-4.63 187.13-3.75 187.98-3.6L187.98-3.6Q188.98-3.4 189.55-3.33 190.13-3.25 190.98-3.75L190.98-3.75Q191.78-4.25 191.98-4.33 192.18-4.4 192.3-4.53 192.43-4.65 192.93-5.15L192.93-5.15Q193.28-5.5 193.48-5.68 193.68-5.85 193.93-5.85L193.93-5.85Q194.18-5.85 194.38-5.63 194.58-5.4 194.78-5.3L194.78-5.3Q195.28-5.3 195-4.7 194.73-4.1 193.93-3.28 193.13-2.45 192.03-1.75ZM191.98-12.35L191.98-12.35Q192.53-12.6 193.13-13.08 193.73-13.55 194.15-14.13 194.58-14.7 194.58-15.1L194.58-15.1Q194.58-15.8 193.93-16.28 193.28-16.75 191.98-16.4L191.98-16.4Q191.43-16.25 190.73-15.68 190.03-15.1 189.4-14.4 188.78-13.7 188.4-13.15 188.03-12.6 188.13-12.5L188.13-12.5Q188.28-12.25 188.98-12.13 189.68-12 190.55-12.05 191.43-12.1 191.98-12.35ZM199.82-1.8L199.82-1.8Q199.62-2.2 199.32-2.43 199.02-2.65 199.02-2.85L199.02-2.85Q199.02-3.05 199-3.28 198.97-3.5 198.77-3.7L198.77-3.7Q198.52-4 198.82-5.08 199.12-6.15 199.82-7.73 200.52-9.3 201.47-11.05L201.47-11.05Q201.87-11.45 202.27-12.1 202.67-12.75 202.87-12.95L202.87-12.95Q202.87-13.15 203.02-13.33 203.17-13.5 203.37-13.5L203.37-13.5 203.37-13.8Q203.37-14.05 203.85-14.65 204.32-15.25 205.02-15.98 205.72-16.7 206.47-17.38 207.22-18.05 207.72-18.35L207.72-18.35Q208.77-19.05 209.9-19.2 211.02-19.35 211.82-18.7L211.82-18.7Q211.97-18.55 212.32-18.2 212.67-17.85 213.15-17.43 213.62-17 214.12-16.55L214.12-16.55 215.97-14.9 215.07-12.4Q214.42-10.4 214.75-8.9 215.07-7.4 215.72-6.3L215.72-6.3Q215.97-5.75 216.75-5.25 217.52-4.75 218.22-4.65L218.22-4.65Q218.62-4.6 218.97-4.35 219.32-4.1 219.32-3.55L219.32-3.55Q219.32-3.05 219.12-2.75 218.92-2.45 218.42-2.35L218.42-2.35Q216.77-2.15 215.35-3.15 213.92-4.15 212.72-6.45L212.72-6.45Q212.52-6.75 212.2-7.58 211.87-8.4 211.82-8.65L211.82-8.65Q211.62-8.4 211.07-7.73 210.52-7.05 210.22-6.75L210.22-6.75Q206.67-3.15 204.1-1.93 201.52-0.7 199.82-1.8ZM201.62-4.6L201.62-4.6Q201.62-4.25 202.7-4.63 203.77-5 205.02-6L205.02-6Q206.72-7.45 208.45-9.2 210.17-10.95 211.22-12.45L211.22-12.45 212.32-14.25Q211.82-15.4 211.25-15.83 210.67-16.25 210.27-16.25L210.27-16.25Q209.62-16.25 208.35-15.05 207.07-13.85 205.62-11.85 204.17-9.85 202.87-7.45L202.87-7.45Q202.37-6.45 202-5.53 201.62-4.6 201.62-4.6ZM224.37 0.2L224.37 0.2Q223.42-0.2 222.57-0.88 221.72-1.55 221.47-2L221.47-2Q221.47-2.45 221.62-2.63 221.77-2.8 222.5-2.78 223.22-2.75 224.87-2.55L224.87-2.55Q225.47-2.55 226.37-2.65 227.27-2.75 228.05-2.95 228.82-3.15 228.92-3.45L228.92-3.45Q229.17-3.45 229.02-3.63 228.87-3.8 228.67-4L228.67-4Q228.47-4 228.22-4.17 227.97-4.35 227.77-4.35L227.77-4.35Q227.77-4.6 227.3-4.93 226.82-5.25 226.32-5.45L226.32-5.45Q225.22-6.35 224.42-7.08 223.62-7.8 223.82-8.05L223.82-8.05Q223.82-8.25 223.82-8.28 223.82-8.3 223.82-8.3L223.82-8.3Q223.47-8.3 223.05-9.3 222.62-10.3 222.62-11.1L222.62-11.1Q222.62-11.7 222.97-12.63 223.32-13.55 223.92-14.55 224.52-15.55 225.17-16.2L225.17-16.2Q226.07-17.05 227.42-18.03 228.77-19 230.1-19.78 231.42-20.55 232.32-20.8L232.32-20.8Q233.22-21.15 234-21.15 234.77-21.15 235.37-20.8L235.37-20.8Q235.87-20.55 236.3-20.08 236.72-19.6 237.05-19.13 237.37-18.65 237.47-18.3L237.47-18.3Q237.47-17.7 237.37-16.98 237.27-16.25 237.1-15.7 236.92-15.15 236.57-15.15L236.57-15.15Q236.57-15.15 236.45-15.13 236.32-15.1 236.32-14.85L236.32-14.85Q236.32-14.35 235.57-13.7L235.57-13.7Q234.62-13.05 233.92-12.93 233.22-12.8 233.07-13.45L233.07-13.45Q232.92-13.65 232.87-13.8 232.82-13.95 232.62-13.95L232.62-13.95Q232.62-13.95 232.47-14.1 232.32-14.25 232.32-14.6L232.32-14.6Q232.32-14.8 232.47-14.98 232.62-15.15 232.62-15.15L232.62-15.15Q232.87-15.15 233.27-15.73 233.67-16.3 234-16.98 234.32-17.65 234.32-17.9L234.32-17.9Q234.32-18.2 234.25-18.25 234.17-18.3 233.77-18.3L233.77-18.3Q233.07-18 232.07-17.5 231.07-17 230.2-16.53 229.32-16.05 228.92-15.65L228.92-15.65Q228.72-15.3 228.67-15.23 228.62-15.15 228.42-15.15L228.42-15.15Q228.42-15.35 228.1-14.98 227.77-14.6 227.3-13.95 226.82-13.3 226.4-12.68 225.97-12.05 225.77-11.75L225.77-11.75Q225.67-11.65 225.55-11.18 225.42-10.7 225.42-10.3L225.42-10.3Q225.22-9.7 225.47-9.47 225.72-9.25 226.57-8.55L226.57-8.55Q228.32-7.25 229.32-6.4 230.32-5.55 230.82-5 231.32-4.45 231.42-4L231.42-4Q232.32-2.5 231.97-1.7 231.62-0.9 230.27-0.3L230.27-0.3Q229.77-0.05 228.62 0.1 227.47 0.25 226.27 0.28 225.07 0.3 224.37 0.2ZM251.02-1.6L251.02-1.6Q250.62-2 250.44-2.6 250.27-3.2 250.32-3.8 250.37-4.4 250.57-4.8L250.57-4.8Q250.57-5.2 250.69-5.43 250.82-5.65 250.77-5.85L250.77-5.85Q250.72-6.05 250.87-6.55 251.02-7.05 251.17-7.5L251.17-7.5Q251.52-8.3 251.92-9.43 252.32-10.55 252.67-11.65 253.02-12.75 253.27-13.55 253.52-14.35 253.57-14.55L253.57-14.55Q253.57-15.15 254.37-15.2L254.37-15.2Q254.97-15.4 255.27-15.23 255.57-15.05 256.07-14.25L256.07-14.25Q256.47-13.85 256.37-13.05 256.27-12.25 255.72-11.05L255.72-11.05Q255.52-10.65 255.24-9.9 254.97-9.15 254.87-8.55L254.87-8.55Q254.67-8.15 254.39-7.43 254.12-6.7 253.92-6.05L253.92-6.05Q253.82-5.8 253.72-5.33 253.62-4.85 253.47-4.33 253.32-3.8 253.07-3.4L253.07-3.4Q252.62-1.35 252.24-1 251.87-0.65 251.02-1.6ZM255.87-21.9L255.87-21.9Q255.62-22.15 255.42-22.63 255.22-23.1 255.17-23.53 255.12-23.95 255.27-23.95L255.27-23.95Q255.67-24 256.22-24.8 256.77-25.6 256.67-26.2L256.67-26.2Q256.67-26.4 256.82-26.58 256.97-26.75 257.17-26.8L257.17-26.8Q257.77-27.2 258.34-26.93 258.92-26.65 259.42-25.85L259.42-25.85Q259.87-24.9 259.67-24.28 259.47-23.65 258.57-22.55L258.57-22.55Q257.82-21.55 257.19-21.45 256.57-21.35 255.87-21.9ZM277.51-2.3L277.51-2.3Q276.51-2.3 275.86-2.73 275.21-3.15 274.76-4.15L274.76-4.15Q274.56-4.85 274.44-5.73 274.31-6.6 274.31-7.38 274.31-8.15 274.46-8.4L274.46-8.4Q274.66-8.6 274.64-9.13 274.61-9.65 274.61-10.25L274.61-10.25Q274.56-11.25 274.14-11.38 273.71-11.5 272.91-11.05L272.91-11.05Q272.01-10.5 270.56-9.58 269.11-8.65 267.54-7.55 265.96-6.45 264.56-5.25L264.56-5.25Q263.46-4.05 263.24-3.43 263.01-2.8 262.61-2.8L262.61-2.8Q262.21-2.6 261.94-2.78 261.66-2.95 261.16-3.35L261.16-3.35Q260.81-3.75 260.46-4.13 260.11-4.5 260.01-4.7L260.01-4.7Q260.01-4.95 260.16-5.75 260.31-6.55 260.54-7.35 260.76-8.15 260.86-8.4L260.86-8.4Q261.11-8.4 261.29-8.9 261.46-9.4 261.86-10L261.86-10Q261.96-10.6 262.39-11.63 262.81-12.65 263.16-13.45L263.16-13.45Q263.86-14.65 264.14-15.45 264.41-16.25 264.51-17.45L264.51-17.45Q264.46-17.65 264.61-17.82 264.76-18 264.96-18L264.96-18 264.96-18 264.96-18Q265.36-18.4 265.91-18.23 266.46-18.05 266.91-17.45L266.91-17.45Q267.81-16.25 267.64-14.98 267.46-13.7 266.01-11.35L266.01-11.35Q265.66-10.55 265.49-10.13 265.31-9.7 265.31-9.45L265.31-9.45Q265.31-9.45 265.84-9.8 266.36-10.15 267.04-10.63 267.71-11.1 268.11-11.35L268.11-11.35Q268.36-11.6 269.26-12.25 270.16-12.9 271.19-13.53 272.21-14.15 272.71-14.25L272.71-14.25Q273.11-14.45 273.56-14.63 274.01-14.8 274.21-14.8L274.21-14.8Q274.61-14.8 275.24-14.38 275.86-13.95 276.41-13.38 276.96-12.8 277.06-12.4L277.06-12.4Q277.06-12.2 277.09-12 277.11-11.8 277.16-11.6L277.16-11.6Q277.36-10.95 277.39-9.85 277.41-8.75 277.31-7.85 277.21-6.95 276.96-6.8L276.96-6.8Q276.96-6.8 276.99-6.68 277.01-6.55 277.21-6.55L277.21-6.55Q277.21-6.35 277.21-6.33 277.21-6.3 277.21-6.3L277.21-6.3Q276.96-6.3 277.01-5.88 277.06-5.45 277.34-4.95 277.61-4.45 277.91-4.15L277.91-4.15Q278.51-3.55 278.41-3.03 278.31-2.5 277.51-2.3ZM285.76-0.35L285.76-0.35Q285.21-0.45 284.63-0.93 284.06-1.4 283.63-2.02 283.21-2.65 283.06-3.15L283.06-3.15Q283.06-3.25 282.94-3.4 282.81-3.55 282.81-3.55L282.81-3.55Q282.61-3.7 282.58-4.88 282.56-6.05 282.71-7.5 282.86-8.95 283.06-9.8L283.06-9.8Q283.31-10.6 283.81-11.98 284.31-13.35 284.66-14.45L284.66-14.45 286.01-17.35 284.01-17.9Q283.66-18 283.44-18.3 283.21-18.6 283.21-18.8L283.21-18.8Q283.21-19.2 283.66-19.78 284.11-20.35 284.31-20.35L284.31-20.35Q284.56-20.3 285.24-20.3 285.91-20.3 286.56-20.35 287.21-20.4 287.36-20.45L287.36-20.45Q287.56-20.55 287.76-20.73 287.96-20.9 288.06-21.25L288.06-21.25Q288.31-21.8 288.51-22.28 288.71-22.75 289.06-23.35L289.06-23.35Q289.41-24 289.63-24.45 289.86-24.9 290.36-25.7L290.36-25.7Q290.61-26.05 290.91-26.55 291.21-27.05 291.66-27.4L291.66-27.4Q292.11-27.8 292.58-27.78 293.06-27.75 293.81-27.1L293.81-27.1Q294.21-26.6 294.26-26.35 294.31-26.1 293.86-25.4L293.86-25.4Q293.46-24.55 292.94-23.7 292.41-22.85 291.96-22L291.96-22Q291.16-20.9 291.66-20.75 292.16-20.6 294.46-20.95L294.46-20.95Q295.91-21.2 296.56-20.83 297.21-20.45 297.31-19.6L297.31-19.6Q297.46-18.4 297.06-18.15 296.66-17.9 294.76-17.9L294.76-17.9Q293.56-17.7 292.71-17.68 291.86-17.65 291.46-17.65L291.46-17.65Q290.81-17.6 290.61-17.6 290.41-17.6 290.01-17.5L290.01-17.5Q289.61-17.4 289.44-17.18 289.26-16.95 289.06-16.55L289.06-16.55Q288.86-16.35 288.46-15.5 288.06-14.65 287.46-13.65L287.46-13.65Q286.76-11.55 286.26-9.47 285.76-7.4 285.46-5.45L285.46-5.45Q285.26-4.2 285.51-3.73 285.76-3.25 286.81-3.15L286.81-3.15Q287.36-3.1 288.58-3.18 289.81-3.25 290.51-3.45L290.51-3.45Q291.06-3.7 291.66-3.98 292.26-4.25 292.76-4.55L292.76-4.55Q293.21-4.8 293.66-5.08 294.11-5.35 294.11-5.35L294.11-5.35Q294.36-5.75 294.66-5.6 294.96-5.45 295.16-4.85L295.16-4.85Q295.16-4.25 294.91-3.6 294.66-2.95 293.06-2.05L293.06-2.05Q290.81-0.65 288.94-0.38 287.06-0.1 285.76-0.35ZM301.81-0.75L301.81-0.75Q301.16-0.75 300.78-1 300.41-1.25 299.86-1.7L299.86-1.7Q298.91-2.7 298.51-3.63 298.11-4.55 298.26-5.4L298.26-5.4Q298.41-5.8 298.38-6.18 298.36-6.55 298.36-6.55L298.36-6.55Q298.11-6.8 298.21-6.88 298.31-6.95 298.41-7.15L298.41-7.15Q298.71-7.15 298.61-7.7L298.61-7.7Q298.51-8.1 299.01-9.45 299.51-10.8 300.26-12L300.26-12Q300.56-12.5 301.16-13.33 301.76-14.15 302.48-14.98 303.21-15.8 303.81-16.3L303.81-16.3Q305.06-17.35 306.01-17.85 306.96-18.35 308.06-18.6L308.06-18.6Q309.16-18.85 309.58-18.85 310.01-18.85 310.76-18.05L310.76-18.05Q311.91-17.55 312.43-16.85 312.96-16.15 313.11-14.8L313.11-14.8Q313.26-13.3 312.88-11.38 312.51-9.45 310.51-6.6L310.51-6.6Q309.26-4.8 308.21-3.93 307.16-3.05 305.71-2.2L305.71-2.2Q304.66-1.5 303.81-1.18 302.96-0.85 301.81-0.75ZM306.61-6.05L306.61-6.05Q307.81-7.4 308.53-8.6 309.26-9.8 309.91-11.65L309.91-11.65Q310.11-12.2 310.16-13.03 310.21-13.85 310.13-14.58 310.06-15.3 309.76-15.4L309.76-15.4Q309.16-15.75 308.31-15.63 307.46-15.5 306.46-14.65L306.46-14.65Q304.91-13.35 303.76-11.43 302.61-9.5 301.51-7.05L301.51-7.05Q300.76-5.25 301.18-4.17 301.61-3.1 303.03-3.43 304.46-3.75 306.61-6.05ZM330.1 3L330.1 3Q329.9 3.5 329.38 3.55 328.85 3.6 328 2.95L328 2.95Q327.4 2.35 327.23 2.02 327.05 1.7 327.4 0.93 327.75 0.15 328.6-1.8L328.6-1.8Q328.8-3 329.3-4.23 329.8-5.45 330.05-5.95L330.05-5.95Q330.25-6.65 330.88-8.28 331.5-9.9 332.33-11.9 333.15-13.9 333.9-15.68 334.65-17.45 335-18.35L335-18.35Q335.85-20.35 336.75-22.55 337.65-24.75 339.2-28.1L339.2-28.1Q339.4-28.6 339.43-29.15 339.45-29.7 338.6-29.7L338.6-29.7Q338.1-30.25 338.05-30.83 338-31.4 338.55-31.65L338.55-31.65 341.15-32.7Q343.5-33.25 345.98-33.02 348.45-32.8 350.65-31.65L350.65-31.65Q353.05-30.25 354.05-28.83 355.05-27.4 355.08-25.95 355.1-24.5 354.55-23.1L354.55-23.1Q354.15-22.05 353.03-20.8 351.9-19.55 350.43-18.3 348.95-17.05 347.38-16.03 345.8-15 344.45-14.45L344.45-14.45Q343.2-13.85 341.85-13.4 340.5-12.95 339.05-12.5L339.05-12.5Q338.25-12.3 337.15-12.3 336.05-12.3 335.5-12.5L335.5-12.5 334.65-10.15Q334.15-8.35 332.93-4.8 331.7-1.25 330.1 3ZM349.95 3.55L349.95 3.55Q349.55 3.7 349.03 3.65 348.5 3.6 347.35 2.85L347.35 2.85Q345.15 1.55 342.95-0.3 340.75-2.15 338-5.3L338-5.3Q336.95-6.55 336.23-7.6 335.5-8.65 334.7-10.55L334.7-10.55 334-13.25 335.35-14 337.15-12.2Q337.95-10.45 339.23-8.85 340.5-7.25 341.6-6L341.6-6Q342.5-4.95 344.05-3.48 345.6-2 347.35-0.65 349.1 0.7 350.5 1.4L350.5 1.4Q350.8 1.65 350.7 2.15 350.6 2.65 350.38 3.08 350.15 3.5 349.95 3.55ZM337.05-15.05L337.05-15.05Q338.2-15.15 339.75-15.63 341.3-16.1 342.85-16.75L342.85-16.75Q344.3-17.45 345.93-18.43 347.55-19.4 348.95-20.6 350.35-21.8 351.23-23.1 352.1-24.4 352-25.7L352-25.7Q352-26.35 351.5-27.05 351-27.75 350.3-28.3 349.6-28.85 348.95-29.05L348.95-29.05Q346.95-29.55 345.65-29.7 344.35-29.85 343.65-29.53 342.95-29.2 342.7-28.2L342.7-28.2Q342.7-28.05 342.3-27.2 341.9-26.35 341.33-25.1 340.75-23.85 340.2-22.45L340.2-22.45Q338.75-19.5 338-17.98 337.25-16.45 337.05-15.85 336.85-15.25 337.05-15.05ZM363.25-1.75L363.25-1.75Q362.2-0.85 360.83-0.7 359.45-0.55 358.15-1.13 356.85-1.7 356-2.9L356-2.9Q355.15-4 354.9-5.43 354.65-6.85 354.85-9.15L354.85-9.15Q355-11.1 356.1-13.08 357.2-15.05 358.78-16.6 360.35-18.15 361.9-18.75L361.9-18.75Q362.65-19.25 363.18-19.23 363.7-19.2 364.8-19.1L364.8-19.1Q365.95-18.95 366.53-18.65 367.1-18.35 367.45-17.85L367.45-17.85Q368.2-17.1 368.45-16.38 368.7-15.65 368.7-14.95L368.7-14.95Q368.5-13.85 367.23-12.28 365.95-10.7 363.9-9.7L363.9-9.7Q362.8-9.35 361.5-9.4 360.2-9.45 359.35-10.05L359.35-10.05Q358.4-10.45 358.1-9.93 357.8-9.4 357.55-7.4L357.55-7.4Q357.35-5.5 357.85-4.63 358.35-3.75 359.2-3.6L359.2-3.6Q360.2-3.4 360.78-3.33 361.35-3.25 362.2-3.75L362.2-3.75Q363-4.25 363.2-4.33 363.4-4.4 363.53-4.53 363.65-4.65 364.15-5.15L364.15-5.15Q364.5-5.5 364.7-5.68 364.9-5.85 365.15-5.85L365.15-5.85Q365.4-5.85 365.6-5.63 365.8-5.4 366-5.3L366-5.3Q366.5-5.3 366.23-4.7 365.95-4.1 365.15-3.28 364.35-2.45 363.25-1.75ZM363.2-12.35L363.2-12.35Q363.75-12.6 364.35-13.08 364.95-13.55 365.38-14.13 365.8-14.7 365.8-15.1L365.8-15.1Q365.8-15.8 365.15-16.28 364.5-16.75 363.2-16.4L363.2-16.4Q362.65-16.25 361.95-15.68 361.25-15.1 360.63-14.4 360-13.7 359.63-13.15 359.25-12.6 359.35-12.5L359.35-12.5Q359.5-12.25 360.2-12.13 360.9-12 361.78-12.05 362.65-12.1 363.2-12.35ZM371.05-1.8L371.05-1.8Q370.85-2.2 370.55-2.43 370.25-2.65 370.25-2.85L370.25-2.85Q370.25-3.05 370.22-3.28 370.2-3.5 370-3.7L370-3.7Q369.75-4 370.05-5.08 370.35-6.15 371.05-7.73 371.75-9.3 372.7-11.05L372.7-11.05Q373.1-11.45 373.5-12.1 373.9-12.75 374.1-12.95L374.1-12.95Q374.1-13.15 374.25-13.33 374.4-13.5 374.6-13.5L374.6-13.5 374.6-13.8Q374.6-14.05 375.07-14.65 375.55-15.25 376.25-15.98 376.95-16.7 377.7-17.38 378.45-18.05 378.95-18.35L378.95-18.35Q380-19.05 381.12-19.2 382.25-19.35 383.05-18.7L383.05-18.7Q383.2-18.55 383.55-18.2 383.9-17.85 384.37-17.43 384.85-17 385.35-16.55L385.35-16.55 387.2-14.9 386.3-12.4Q385.65-10.4 385.97-8.9 386.3-7.4 386.95-6.3L386.95-6.3Q387.2-5.75 387.97-5.25 388.75-4.75 389.45-4.65L389.45-4.65Q389.85-4.6 390.2-4.35 390.55-4.1 390.55-3.55L390.55-3.55Q390.55-3.05 390.35-2.75 390.15-2.45 389.65-2.35L389.65-2.35Q388-2.15 386.57-3.15 385.15-4.15 383.95-6.45L383.95-6.45Q383.75-6.75 383.42-7.58 383.1-8.4 383.05-8.65L383.05-8.65Q382.85-8.4 382.3-7.73 381.75-7.05 381.45-6.75L381.45-6.75Q377.9-3.15 375.32-1.93 372.75-0.7 371.05-1.8ZM372.85-4.6L372.85-4.6Q372.85-4.25 373.92-4.63 375-5 376.25-6L376.25-6Q377.95-7.45 379.67-9.2 381.4-10.95 382.45-12.45L382.45-12.45 383.55-14.25Q383.05-15.4 382.47-15.83 381.9-16.25 381.5-16.25L381.5-16.25Q380.85-16.25 379.57-15.05 378.3-13.85 376.85-11.85 375.4-9.85 374.1-7.45L374.1-7.45Q373.6-6.45 373.22-5.53 372.85-4.6 372.85-4.6ZM394.05 0L394.05 0Q393.1 0.25 392.52-0.4 391.95-1.05 391.85-2.4 391.75-3.75 392.15-5.6L392.15-5.6Q392.4-6.2 392.55-6.78 392.7-7.35 392.7-7.7L392.7-7.7Q392.8-8.2 393.1-9.18 393.4-10.15 393.75-11.2 394.1-12.25 394.42-13.08 394.75-13.9 394.85-14.1L394.85-14.1Q395.05-14.1 395.2-14.45 395.35-14.8 395.35-15.15L395.35-15.15Q395.35-15.55 395.52-16.05 395.7-16.55 395.9-16.75L395.9-16.75Q395.9-17 396.02-17.32 396.15-17.65 396.15-17.85L396.15-17.85Q396.15-18.05 396.27-18.25 396.4-18.45 396.4-18.65L396.4-18.65Q396.75-19.3 397.32-20.73 397.9-22.15 398.57-23.9 399.25-25.65 399.85-27.35 400.45-29.05 400.82-30.23 401.2-31.4 401.2-31.65L401.2-31.65Q401.2-32.05 401.4-32.25 401.6-32.45 402-32.45L402-32.45Q402.15-32.6 402.37-32.65 402.6-32.7 402.8-32.7L402.8-32.7Q402.8-32.7 403-32.5 403.2-32.3 403.6-31.9L403.6-31.9Q404-31.55 404.07-31.1 404.15-30.65 404.15-30.05L404.15-30.05Q404.15-29.4 404-28.9 403.85-28.4 403.4-27.45 402.95-26.5 402-24.5L402-24.5Q401.6-23.5 401.15-22.63 400.7-21.75 400.7-21.55L400.7-21.55Q400.7-21.35 400.52-20.95 400.35-20.55 400.15-19.95L400.15-19.95Q399.95-19.55 399.6-18.78 399.25-18 398.87-17.13 398.5-16.25 398.25-15.63 398-15 398-14.9L398-14.9Q398-14.7 397.97-14.5 397.95-14.3 397.75-14.1L397.75-14.1Q397.55-14.1 397.52-13.83 397.5-13.55 397.5-13.55L397.5-13.55Q397.5-13.05 396.7-10.9L396.7-10.9Q395.9-8.15 395.22-5.85 394.55-3.55 394.55-2.15L394.55-2.15Q394.55-0.95 394.5-0.58 394.45-0.2 394.05 0ZM401.54-1.6L401.54-1.6Q401.14-2 400.97-2.6 400.79-3.2 400.84-3.8 400.89-4.4 401.09-4.8L401.09-4.8Q401.09-5.2 401.22-5.43 401.34-5.65 401.29-5.85L401.29-5.85Q401.24-6.05 401.39-6.55 401.54-7.05 401.69-7.5L401.69-7.5Q402.04-8.3 402.44-9.43 402.84-10.55 403.19-11.65 403.54-12.75 403.79-13.55 404.04-14.35 404.09-14.55L404.09-14.55Q404.09-15.15 404.89-15.2L404.89-15.2Q405.49-15.4 405.79-15.23 406.09-15.05 406.59-14.25L406.59-14.25Q406.99-13.85 406.89-13.05 406.79-12.25 406.24-11.05L406.24-11.05Q406.04-10.65 405.77-9.9 405.49-9.15 405.39-8.55L405.39-8.55Q405.19-8.15 404.92-7.43 404.64-6.7 404.44-6.05L404.44-6.05Q404.34-5.8 404.24-5.33 404.14-4.85 403.99-4.33 403.84-3.8 403.59-3.4L403.59-3.4Q403.14-1.35 402.77-1 402.39-0.65 401.54-1.6ZM406.39-21.9L406.39-21.9Q406.14-22.15 405.94-22.63 405.74-23.1 405.69-23.53 405.64-23.95 405.79-23.95L405.79-23.95Q406.19-24 406.74-24.8 407.29-25.6 407.19-26.2L407.19-26.2Q407.19-26.4 407.34-26.58 407.49-26.75 407.69-26.8L407.69-26.8Q408.29-27.2 408.87-26.93 409.44-26.65 409.94-25.85L409.94-25.85Q410.39-24.9 410.19-24.28 409.99-23.65 409.09-22.55L409.09-22.55Q408.34-21.55 407.72-21.45 407.09-21.35 406.39-21.9ZM414.29-0.35L414.29-0.35Q413.74-0.45 413.17-0.93 412.59-1.4 412.17-2.02 411.74-2.65 411.59-3.15L411.59-3.15Q411.59-3.25 411.47-3.4 411.34-3.55 411.34-3.55L411.34-3.55Q411.14-3.7 411.12-4.88 411.09-6.05 411.24-7.5 411.39-8.95 411.59-9.8L411.59-9.8Q411.84-10.6 412.34-11.98 412.84-13.35 413.19-14.45L413.19-14.45 414.54-17.35 412.54-17.9Q412.19-18 411.97-18.3 411.74-18.6 411.74-18.8L411.74-18.8Q411.74-19.2 412.19-19.78 412.64-20.35 412.84-20.35L412.84-20.35Q413.09-20.3 413.77-20.3 414.44-20.3 415.09-20.35 415.74-20.4 415.89-20.45L415.89-20.45Q416.09-20.55 416.29-20.73 416.49-20.9 416.59-21.25L416.59-21.25Q416.84-21.8 417.04-22.28 417.24-22.75 417.59-23.35L417.59-23.35Q417.94-24 418.17-24.45 418.39-24.9 418.89-25.7L418.89-25.7Q419.14-26.05 419.44-26.55 419.74-27.05 420.19-27.4L420.19-27.4Q420.64-27.8 421.12-27.78 421.59-27.75 422.34-27.1L422.34-27.1Q422.74-26.6 422.79-26.35 422.84-26.1 422.39-25.4L422.39-25.4Q421.99-24.55 421.47-23.7 420.94-22.85 420.49-22L420.49-22Q419.69-20.9 420.19-20.75 420.69-20.6 422.99-20.95L422.99-20.95Q424.44-21.2 425.09-20.83 425.74-20.45 425.84-19.6L425.84-19.6Q425.99-18.4 425.59-18.15 425.19-17.9 423.29-17.9L423.29-17.9Q422.09-17.7 421.24-17.68 420.39-17.65 419.99-17.65L419.99-17.65Q419.34-17.6 419.14-17.6 418.94-17.6 418.54-17.5L418.54-17.5Q418.14-17.4 417.97-17.18 417.79-16.95 417.59-16.55L417.59-16.55Q417.39-16.35 416.99-15.5 416.59-14.65 415.99-13.65L415.99-13.65Q415.29-11.55 414.79-9.47 414.29-7.4 413.99-5.45L413.99-5.45Q413.79-4.2 414.04-3.73 414.29-3.25 415.34-3.15L415.34-3.15Q415.89-3.1 417.12-3.18 418.34-3.25 419.04-3.45L419.04-3.45Q419.59-3.7 420.19-3.98 420.79-4.25 421.29-4.55L421.29-4.55Q421.74-4.8 422.19-5.08 422.64-5.35 422.64-5.35L422.64-5.35Q422.89-5.75 423.19-5.6 423.49-5.45 423.69-4.85L423.69-4.85Q423.69-4.25 423.44-3.6 423.19-2.95 421.59-2.05L421.59-2.05Q419.34-0.65 417.47-0.38 415.59-0.1 414.29-0.35ZM425.84 9.95L425.84 9.95Q424.64 10.3 423.21 10.08 421.79 9.85 420.71 9.2 419.64 8.55 419.49 7.75L419.49 7.75Q419.44 7.45 419.66 7.1 419.89 6.75 420.21 6.63 420.54 6.5 420.79 6.8L420.79 6.8Q421.19 7.05 422.24 7.43 423.29 7.8 424.59 7.55L424.59 7.55Q425.74 7.3 426.86 6.2 427.99 5.1 428.69 4.15L428.69 4.15Q429.09 3.55 430.04 2 430.99 0.45 432.01-1.43 433.04-3.3 433.74-4.9L433.74-4.9Q433.89-5.3 434.09-5.85 434.29-6.4 434.59-6.75L434.59-6.75Q434.89-7.35 435.11-7.88 435.34-8.4 435.39-8.6L435.39-8.6Q435.44-8.85 435.84-9.6 436.24-10.35 436.59-11.1L436.59-11.1Q436.84-11.85 437.34-13.3 437.84-14.75 438.34-15.65L438.34-15.65Q438.94-16.8 439.31-17.53 439.69-18.25 440.14-18.4L440.14-18.4 440.14-18.4 440.14-18.4Q440.59-18.75 440.76-18.75 440.94-18.75 441.49-18.45L441.49-18.45Q442.09-17.85 442.24-17.28 442.39-16.7 442.11-15.88 441.84-15.05 441.09-13.65L441.09-13.65Q440.69-12.45 440.21-11.48 439.74-10.5 439.49-10.2L439.49-10.2Q439.24-9.6 438.91-8.88 438.59-8.15 438.34-7.55L438.34-7.55Q437.44-5.55 436.79-4.3 436.14-3.05 435.64-2 435.14-0.95 434.59 0.45L434.59 0.45Q433.44 2.3 432.36 3.98 431.29 5.65 430.09 7.1L430.09 7.1Q429.59 7.55 428.84 8.15 428.09 8.75 427.31 9.25 426.54 9.75 425.84 9.95ZM432.59-2.05L432.59-2.05Q431.84-2.15 431.11-2.95 430.39-3.75 429.99-4.65 429.59-5.55 429.69-5.95L429.69-5.95Q429.69-6.2 429.69-6.35 429.69-6.5 429.69-6.5L429.69-6.5Q429.39-6.5 429.16-7.25 428.94-8 428.84-9.2 428.74-10.4 428.71-11.75 428.69-13.1 428.79-14.3L428.79-14.3Q428.99-15.15 428.99-16.18 428.99-17.2 429.04-17.8L429.04-17.8Q428.99-18.6 429.19-18.88 429.39-19.15 429.59-19.3L429.59-19.3 429.59-19.3 429.59-19.3Q430.99-19.9 431.46-18.57 431.94-17.25 431.69-13.65L431.69-13.65Q431.59-11.65 431.69-9.65 431.79-7.65 432.26-6.15 432.74-4.65 433.59-4.1L433.59-4.1Q433.94-3.9 433.94-3.55 433.94-3.2 433.74-2.83 433.54-2.45 433.21-2.23 432.89-2 432.59-2.05ZM459.88-2.25L459.88-2.25Q459.13-2.25 458.51-3.18 457.88-4.1 457.61-5.58 457.33-7.05 457.43-8.65L457.43-8.65Q457.43-10.25 457.61-11.23 457.78-12.2 457.98-13.15L457.98-13.15Q458.13-13.45 458.16-13.65 458.18-13.85 458.26-14.3 458.33-14.75 458.58-15.8L458.58-15.8Q458.78-16.65 458.98-17.2 459.18-17.75 459.38-17.95L459.38-17.95Q459.63-18.25 460.03-18.32 460.43-18.4 460.83-18.25 461.23-18.1 461.48-17.7L461.48-17.7Q461.78-17.45 461.81-16.57 461.83-15.7 461.68-14.78 461.53-13.85 461.23-13.45L461.23-13.45Q461.13-13.2 461.01-12.15 460.88-11.1 460.76-9.95 460.63-8.8 460.48-8.1L460.48-8.1Q460.33-7.2 460.66-6.65 460.98-6.1 461.91-6.63 462.83-7.15 464.38-9.4L464.38-9.4Q465.43-10.9 465.98-11.85 466.53-12.8 466.86-13.63 467.18-14.45 467.53-15.4L467.53-15.4Q467.78-16.2 468.01-16.73 468.23-17.25 468.43-17.4L468.43-17.4Q468.78-17.65 469.26-17.6 469.73-17.55 470.33-17.15L470.33-17.15Q470.93-16.55 470.93-15.73 470.93-14.9 470.33-13.7L470.33-13.7Q469.93-12.9 469.56-11.65 469.18-10.4 468.96-9.13 468.73-7.85 468.73-7.05L468.73-7.05Q468.73-6.05 469.01-5.88 469.28-5.7 469.68-5.7L469.68-5.7Q470.28-5.7 471.13-6.15 471.98-6.6 473.03-7.7L473.03-7.7Q473.48-8.15 474.13-9.03 474.78-9.9 475.41-10.88 476.03-11.85 476.46-12.6 476.88-13.35 476.88-13.55L476.88-13.55Q476.88-13.85 477.33-14.4L477.33-14.4Q477.63-14.8 477.81-15.03 477.98-15.25 478.48-15.5L478.48-15.5Q478.88-15.7 479.18-15.58 479.48-15.45 479.83-15.05L479.83-15.05Q480.08-14.85 480.11-14.45 480.13-14.05 480.13-13.45L480.13-13.45Q479.98-12.9 479.66-12.03 479.33-11.15 478.96-10.38 478.58-9.6 478.33-9.3L478.33-9.3Q478.13-9.1 477.63-8.58 477.13-8.05 476.73-7.45L476.73-7.45Q475.48-5.95 474.93-5.5 474.38-5.05 473.98-4.65L473.98-4.65Q472.93-3.6 471.78-3.08 470.63-2.55 469.61-2.55 468.58-2.55 467.88-3.05L467.88-3.05Q466.33-3.85 466.33-5.75L466.33-5.75Q466.33-6.15 466.21-6.48 466.08-6.8 466.08-6.8L466.08-6.8Q465.88-6.8 465.56-6.7 465.23-6.6 464.88-6L464.88-6Q464.43-5.15 463.46-4.28 462.48-3.4 461.48-2.83 460.48-2.25 459.88-2.25ZM482.93-1.6L482.93-1.6Q482.53-2 482.36-2.6 482.18-3.2 482.23-3.8 482.28-4.4 482.48-4.8L482.48-4.8Q482.48-5.2 482.61-5.43 482.73-5.65 482.68-5.85L482.68-5.85Q482.63-6.05 482.78-6.55 482.93-7.05 483.08-7.5L483.08-7.5Q483.43-8.3 483.83-9.43 484.23-10.55 484.58-11.65 484.93-12.75 485.18-13.55 485.43-14.35 485.48-14.55L485.48-14.55Q485.48-15.15 486.28-15.2L486.28-15.2Q486.88-15.4 487.18-15.23 487.48-15.05 487.98-14.25L487.98-14.25Q488.38-13.85 488.28-13.05 488.18-12.25 487.63-11.05L487.63-11.05Q487.43-10.65 487.16-9.9 486.88-9.15 486.78-8.55L486.78-8.55Q486.58-8.15 486.31-7.43 486.03-6.7 485.83-6.05L485.83-6.05Q485.73-5.8 485.63-5.33 485.53-4.85 485.38-4.33 485.23-3.8 484.98-3.4L484.98-3.4Q484.53-1.35 484.16-1 483.78-0.65 482.93-1.6ZM487.78-21.9L487.78-21.9Q487.53-22.15 487.33-22.63 487.13-23.1 487.08-23.53 487.03-23.95 487.18-23.95L487.18-23.95Q487.58-24 488.13-24.8 488.68-25.6 488.58-26.2L488.58-26.2Q488.58-26.4 488.73-26.58 488.88-26.75 489.08-26.8L489.08-26.8Q489.68-27.2 490.26-26.93 490.83-26.65 491.33-25.85L491.33-25.85Q491.78-24.9 491.58-24.28 491.38-23.65 490.48-22.55L490.48-22.55Q489.73-21.55 489.11-21.45 488.48-21.35 487.78-21.9ZM495.68-0.35L495.68-0.35Q495.13-0.45 494.55-0.93 493.98-1.4 493.55-2.02 493.13-2.65 492.98-3.15L492.98-3.15Q492.98-3.25 492.85-3.4 492.73-3.55 492.73-3.55L492.73-3.55Q492.53-3.7 492.5-4.88 492.48-6.05 492.63-7.5 492.78-8.95 492.98-9.8L492.98-9.8Q493.23-10.6 493.73-11.98 494.23-13.35 494.58-14.45L494.58-14.45 495.93-17.35 493.93-17.9Q493.58-18 493.35-18.3 493.13-18.6 493.13-18.8L493.13-18.8Q493.13-19.2 493.58-19.78 494.03-20.35 494.23-20.35L494.23-20.35Q494.48-20.3 495.15-20.3 495.83-20.3 496.48-20.35 497.13-20.4 497.28-20.45L497.28-20.45Q497.48-20.55 497.68-20.73 497.88-20.9 497.98-21.25L497.98-21.25Q498.23-21.8 498.43-22.28 498.63-22.75 498.98-23.35L498.98-23.35Q499.33-24 499.55-24.45 499.78-24.9 500.28-25.7L500.28-25.7Q500.53-26.05 500.83-26.55 501.13-27.05 501.58-27.4L501.58-27.4Q502.03-27.8 502.5-27.78 502.98-27.75 503.73-27.1L503.73-27.1Q504.13-26.6 504.18-26.35 504.23-26.1 503.78-25.4L503.78-25.4Q503.38-24.55 502.85-23.7 502.33-22.85 501.88-22L501.88-22Q501.08-20.9 501.58-20.75 502.08-20.6 504.38-20.95L504.38-20.95Q505.83-21.2 506.48-20.83 507.13-20.45 507.23-19.6L507.23-19.6Q507.38-18.4 506.98-18.15 506.58-17.9 504.68-17.9L504.68-17.9Q503.48-17.7 502.63-17.68 501.78-17.65 501.38-17.65L501.38-17.65Q500.73-17.6 500.53-17.6 500.33-17.6 499.93-17.5L499.93-17.5Q499.53-17.4 499.35-17.18 499.18-16.95 498.98-16.55L498.98-16.55Q498.78-16.35 498.38-15.5 497.98-14.65 497.38-13.65L497.38-13.65Q496.68-11.55 496.18-9.47 495.68-7.4 495.38-5.45L495.38-5.45Q495.18-4.2 495.43-3.73 495.68-3.25 496.73-3.15L496.73-3.15Q497.28-3.1 498.5-3.18 499.73-3.25 500.43-3.45L500.43-3.45Q500.98-3.7 501.58-3.98 502.18-4.25 502.68-4.55L502.68-4.55Q503.13-4.8 503.58-5.08 504.03-5.35 504.03-5.35L504.03-5.35Q504.28-5.75 504.58-5.6 504.88-5.45 505.08-4.85L505.08-4.85Q505.08-4.25 504.83-3.6 504.58-2.95 502.98-2.05L502.98-2.05Q500.73-0.65 498.85-0.38 496.98-0.1 495.68-0.35ZM510.08-2.7L510.08-2.7Q509.73-2.65 509.35-2.73 508.98-2.8 508.63-3.05L508.63-3.05Q508.23-3.45 508.08-3.68 507.93-3.9 508-4.4 508.08-4.9 508.33-5.95L508.33-5.95Q508.58-6.75 508.93-8.18 509.28-9.6 509.68-11L509.68-11Q509.83-11.8 510.1-12.65 510.38-13.5 510.68-14.23 510.98-14.95 511.13-15.35L511.13-15.35Q511.53-16.75 511.9-17.8 512.28-18.85 512.83-20.23 513.38-21.6 514.18-23.9L514.18-23.9Q515.28-26.9 515.85-28.48 516.43-30.05 516.7-30.78 516.98-31.5 517.08-31.9L517.08-31.9Q517.08-32.3 517.3-32.5 517.53-32.7 517.88-32.7L517.88-32.7Q518.58-32.7 519-32.02 519.43-31.35 519.53-30.43 519.63-29.5 519.23-28.7L519.23-28.7Q518.43-26.9 517.53-24.43 516.63-21.95 515.78-19.58 514.93-17.2 514.18-15.55L514.18-15.55Q514.18-15.35 514.03-14.85 513.88-14.35 513.68-13.95L513.68-13.95Q513.48-13.55 513.3-13.2 513.13-12.85 513.13-12.85L513.13-12.85Q513.13-12.65 512.98-12.1 512.83-11.55 512.58-10.75L512.58-10.75Q512.38-10.15 512.1-9.2 511.83-8.25 511.73-7.6L511.73-7.6Q511.98-8.05 512.78-8.95 513.58-9.85 514.28-10.5L514.28-10.5Q515.08-11.2 516.08-12.05 517.08-12.9 517.68-13.3L517.68-13.3Q518.28-13.7 518.75-14.03 519.23-14.35 519.23-14.35L519.23-14.35Q519.23-14.55 519.4-14.58 519.58-14.6 519.78-14.6L519.78-14.6Q519.98-14.6 520-14.65 520.03-14.7 520.03-14.9L520.03-14.9Q520.03-15.15 520.6-15.35 521.18-15.55 521.95-15.68 522.73-15.8 523.23-15.8L523.23-15.8Q523.83-15.8 524.18-15.55 524.53-15.3 525.08-14.45L525.08-14.45Q525.68-13.65 525.85-12.53 526.03-11.4 525.63-10.2L525.63-10.2Q525.63-9.8 525.5-9.08 525.38-8.35 525.38-7.55L525.38-7.55 525.08-5.95 525.88-5.95Q526.28-5.95 526.63-5.83 526.98-5.7 526.98-5.7L526.98-5.7Q527.18-5.5 527.38-5.33 527.58-5.15 527.78-5.15L527.78-5.15Q528.38-5.15 528.23-4.67 528.08-4.2 527.48-3.8L527.48-3.8Q526.28-3 525.3-3 524.33-3 523.53-3.8L523.53-3.8Q522.73-4.65 522.53-5.7 522.33-6.75 522.73-8.35L522.73-8.35Q522.93-10.55 522.95-11.58 522.98-12.6 522.43-12.6L522.43-12.6Q521.93-12.6 520.68-11.93 519.43-11.25 517.88-10.1 516.33-8.95 514.83-7.55 513.33-6.15 512.33-4.65L512.33-4.65Q511.73-3.9 511.18-3.33 510.63-2.75 510.08-2.7ZM549.27 2.8L549.27 2.8Q548.52 2.5 547.75 2.15 546.97 1.8 546.3 1.13 545.62 0.45 545.12-0.75L545.12-0.75Q544.62-2.2 544.45-3.6 544.27-5 544.32-6.85L544.32-6.85Q544.32-9.45 544.7-11.38 545.07-13.3 545.87-15.3L545.87-15.3Q545.97-15.45 546.25-16.18 546.52-16.9 546.9-17.75 547.27-18.6 547.47-19.05L547.47-19.05Q547.87-19.9 548.7-21.33 549.52-22.75 550.47-24.1L550.47-24.1Q551.92-26.25 552.87-27.5 553.82-28.75 554.67-29.6 555.52-30.45 556.6-31.23 557.67-32 559.37-33.15L559.37-33.15Q560.47-33.95 561.8-34 563.12-34.05 564.27-33.43 565.42-32.8 565.97-31.6L565.97-31.6Q566.52-30.55 566.52-29.08 566.52-27.6 566.07-25.98 565.62-24.35 564.82-22.9 564.02-21.45 562.97-20.5L562.97-20.5Q562.32-19.9 561.8-20.05 561.27-20.2 560.57-20.85L560.57-20.85Q560.12-21.7 560.1-21.85 560.07-22 560.27-22.05L560.27-22.05Q560.57-22.4 561.07-23.25 561.57-24.1 562.07-25.08 562.57-26.05 562.77-26.65L562.77-26.65Q563.17-28.75 563.32-29.63 563.47-30.5 563.02-30.95L563.02-30.95Q562.82-31.15 562.45-31.1 562.07-31.05 561.22-30.6L561.22-30.6Q560.07-30.1 558.22-28.38 556.37-26.65 554.82-24.55L554.82-24.55Q552.82-21.9 551.47-19.85 550.12-17.8 549.42-15.65L549.42-15.65Q549.32-15.45 549.1-14.9 548.87-14.35 548.87-14.35L548.87-14.35Q548.92-14.15 548.72-13.38 548.52-12.6 548.27-12.05L548.27-12.05Q547.72-9.75 547.62-7.28 547.52-4.8 547.9-2.9 548.27-1 549.02-0.25L549.02-0.25Q549.67 0.2 550.8 0.05 551.92-0.1 553.37-0.65 554.82-1.2 556.32-1.85L556.32-1.85Q557.52-2.35 558.52-2.95 559.52-3.55 560.02-4L560.02-4Q560.42-4.3 561.05-4.63 561.67-4.95 562.12-4.95L562.12-4.95Q562.82-5.2 562.92-5.15 563.02-5.1 563.02-4.7L563.02-4.7Q563.02-4 562.25-3.15 561.47-2.3 560.27-1.6L560.27-1.6Q559.87-1.2 559.22-0.75 558.57-0.3 557.87-0.05L557.87-0.05Q556.82 0.75 555.27 1.5 553.72 2.25 552.15 2.65 550.57 3.05 549.27 2.8ZM570.62-0.75L570.62-0.75Q569.97-0.75 569.59-1 569.22-1.25 568.67-1.7L568.67-1.7Q567.72-2.7 567.32-3.63 566.92-4.55 567.07-5.4L567.07-5.4Q567.22-5.8 567.19-6.18 567.17-6.55 567.17-6.55L567.17-6.55Q566.92-6.8 567.02-6.88 567.12-6.95 567.22-7.15L567.22-7.15Q567.52-7.15 567.42-7.7L567.42-7.7Q567.32-8.1 567.82-9.45 568.32-10.8 569.07-12L569.07-12Q569.37-12.5 569.97-13.33 570.57-14.15 571.29-14.98 572.02-15.8 572.62-16.3L572.62-16.3Q573.87-17.35 574.82-17.85 575.77-18.35 576.87-18.6L576.87-18.6Q577.97-18.85 578.39-18.85 578.82-18.85 579.57-18.05L579.57-18.05Q580.72-17.55 581.24-16.85 581.77-16.15 581.92-14.8L581.92-14.8Q582.07-13.3 581.69-11.38 581.32-9.45 579.32-6.6L579.32-6.6Q578.07-4.8 577.02-3.93 575.97-3.05 574.52-2.2L574.52-2.2Q573.47-1.5 572.62-1.18 571.77-0.85 570.62-0.75ZM575.42-6.05L575.42-6.05Q576.62-7.4 577.34-8.6 578.07-9.8 578.72-11.65L578.72-11.65Q578.92-12.2 578.97-13.03 579.02-13.85 578.94-14.58 578.87-15.3 578.57-15.4L578.57-15.4Q577.97-15.75 577.12-15.63 576.27-15.5 575.27-14.65L575.27-14.65Q573.72-13.35 572.57-11.43 571.42-9.5 570.32-7.05L570.32-7.05Q569.57-5.25 569.99-4.17 570.42-3.1 571.84-3.43 573.27-3.75 575.42-6.05ZM597.92 0.95L597.92 0.95Q597.27 1.1 596.84 0.78 596.42 0.45 596.22-0.15L596.22-0.15Q595.82-1.3 595.64-2.68 595.47-4.05 595.57-5.1L595.57-5.1 595.67-6.15 593.72-4.6Q592.02-3.1 590.44-2.45 588.87-1.8 587.67-1.8L587.67-1.8Q587.12-1.9 586.57-2.2 586.02-2.5 585.59-2.95 585.17-3.4 584.92-3.9L584.92-3.9Q584.62-4.6 584.74-5.8 584.87-7 585.34-8.43 585.82-9.85 586.54-11.23 587.27-12.6 588.22-13.65L588.22-13.65Q589.87-16.15 591.77-16.7 593.67-17.25 595.52-16.15L595.52-16.15Q596.82-15.6 597.14-15.65 597.47-15.7 597.72-16.8L597.72-16.8Q597.92-17.6 598.12-18.43 598.32-19.25 598.77-20.65L598.77-20.65Q600.02-24.45 600.94-26.6 601.87-28.75 602.62-30.35L602.62-30.35Q603.17-31.5 603.54-31.78 603.92-32.05 604.32-32L604.32-32Q604.87-32 605.32-31.6 605.77-31.2 606.02-30.5L606.02-30.5Q606.22-30.05 606.19-29.73 606.17-29.4 605.87-28.85L605.87-28.85Q605.22-27.65 604.34-25.68 603.47-23.7 602.59-21.35 601.72-19 600.97-16.7 600.22-14.4 599.72-12.65L599.72-12.65Q599.42-11.55 599.19-9.85 598.97-8.15 598.82-6.38 598.67-4.6 598.64-3.23 598.62-1.85 598.72-1.45L598.72-1.45Q599.02-0.45 598.99 0.05 598.97 0.55 598.72 0.73 598.47 0.9 597.92 0.95ZM589.47-4.6L589.47-4.6Q590.17-4.75 590.84-5.15 591.52-5.55 592.27-6.1L592.27-6.1Q593.77-7.25 594.87-8.2 595.97-9.15 596.32-11.1L596.32-11.1Q596.42-12.05 596.14-12.63 595.87-13.2 595.27-13.7L595.27-13.7Q594.67-14.1 593.64-14.03 592.62-13.95 591.52-12.95L591.52-12.95Q590.32-11.85 589.19-10 588.07-8.15 587.52-5.45L587.52-5.45Q587.42-4.95 587.82-4.65 588.22-4.35 589.47-4.6ZM613.26-1.75L613.26-1.75Q612.21-0.85 610.84-0.7 609.46-0.55 608.16-1.13 606.86-1.7 606.01-2.9L606.01-2.9Q605.16-4 604.91-5.43 604.66-6.85 604.86-9.15L604.86-9.15Q605.01-11.1 606.11-13.08 607.21-15.05 608.79-16.6 610.36-18.15 611.91-18.75L611.91-18.75Q612.66-19.25 613.19-19.23 613.71-19.2 614.81-19.1L614.81-19.1Q615.96-18.95 616.54-18.65 617.11-18.35 617.46-17.85L617.46-17.85Q618.21-17.1 618.46-16.38 618.71-15.65 618.71-14.95L618.71-14.95Q618.51-13.85 617.24-12.28 615.96-10.7 613.91-9.7L613.91-9.7Q612.81-9.35 611.51-9.4 610.21-9.45 609.36-10.05L609.36-10.05Q608.41-10.45 608.11-9.93 607.81-9.4 607.56-7.4L607.56-7.4Q607.36-5.5 607.86-4.63 608.36-3.75 609.21-3.6L609.21-3.6Q610.21-3.4 610.79-3.33 611.36-3.25 612.21-3.75L612.21-3.75Q613.01-4.25 613.21-4.33 613.41-4.4 613.54-4.53 613.66-4.65 614.16-5.15L614.16-5.15Q614.51-5.5 614.71-5.68 614.91-5.85 615.16-5.85L615.16-5.85Q615.41-5.85 615.61-5.63 615.81-5.4 616.01-5.3L616.01-5.3Q616.51-5.3 616.24-4.7 615.96-4.1 615.16-3.28 614.36-2.45 613.26-1.75ZM613.21-12.35L613.21-12.35Q613.76-12.6 614.36-13.08 614.96-13.55 615.39-14.13 615.81-14.7 615.81-15.1L615.81-15.1Q615.81-15.8 615.16-16.28 614.51-16.75 613.21-16.4L613.21-16.4Q612.66-16.25 611.96-15.68 611.26-15.1 610.64-14.4 610.01-13.7 609.64-13.15 609.26-12.6 609.36-12.5L609.36-12.5Q609.51-12.25 610.21-12.13 610.91-12 611.79-12.05 612.66-12.1 613.21-12.35Z" opacity="1" transform="matrix(1,0,0,1,0,0)" fill="#6b26ff" class="slogan-text-1" data-fill-palette-color="secondary" id="text-1"></path></svg></g></svg></g></svg></g></svg></g><g></g></svg></g><defs></defs></svg><rect width="395.52" height="227.33058957923635" fill="none" stroke="none" visibility="hidden"></rect></g></svg></g></svg>