<svg xmlns="http://www.w3.org/2000/svg" version="1.1" xmlns:xlink="http://www.w3.org/1999/xlink" xmlns:svgjs="http://svgjs.dev/svgjs" width="1500" height="1687" viewBox="0 0 1500 1687"><g transform="matrix(1,0,0,1,2.2737367544323206e-13,0)"><svg viewBox="0 0 320 360" data-background-color="#ffffff" preserveAspectRatio="xMidYMid meet" height="1687" width="1500" xmlns="http://www.w3.org/2000/svg" xmlns:xlink="http://www.w3.org/1999/xlink"><g id="tight-bounds" transform="matrix(1,0,0,1,0,0)"><svg viewBox="0 0 320 360" height="360" width="320"><g><svg></svg></g><g><svg viewBox="0 0 320 360" height="360" width="320"><g><path d="M20.961 227.22l3.726 4.658-1.863-6.056c-0.466-2.795-3.726 0.466-1.863 1.398M25.153 224.425c1.397 2.329 2.795 4.658 2.795 6.987 0 3.261 2.795 4.658 5.123 5.589-3.261-3.726-5.124-13.974-7.918-12.576M204.017 26.929c7.918 0 15.371-0.932 23.756 0.931 20.495 5.124 37.729 15.371 49.374 29.811l32.606 52.169c1.397 13.042 4.192 27.482 3.726 43.319 3.261 0 2.795-4.658 6.521-5.59-3.726 9.316-5.59 20.961-6.521 34.469-2.329-7.453 0-18.632 0.466-24.687-3.261 5.124-5.124 1.397-5.124-0.932 0.466-3.726-1.397-3.261-2.795-4.658-5.124-4.658-8.384-9.782-12.11-17.7 2.329-6.055 2.795-14.905-4.658-19.563-2.329-1.397-5.124-3.726-6.521-7.453-1.863-5.124-5.124-11.179-4.193-19.097 0.466-2.329-6.987 5.124-11.179 1.863-18.166-12.576-36.332-27.016-58.224-39.127-11.645 0-20.029-4.192-24.221-9.316-3.726-4.658-0.932-10.713 4.658-11.179 3.261 0 6.987-0.932 9.782 0.932 0.466-1.863 2.329-4.192 4.657-4.192M157.904 16.215l0.932 0.466c4.658 0.932 6.987 7.453 12.11 5.124 0 3.261 0.466 6.521-0.466 8.85-1.397 3.726-5.59 3.726-8.85 3.726-31.208-1.863-49.374 11.179-68.471 22.358-5.124 3.261-10.713 5.59-14.906 9.782-20.029 18.632-41.921 35.866-47.045 70.335l-4.192 38.195c-0.466 4.192-5.124 8.384-4.192 13.508l3.26 22.824c-3.261-3.261-5.124 0.932-4.192 2.795 0.466 1.397 2.329 6.055 5.124 1.863 3.726 6.987 7.453 20.495 12.576 26.55 15.837 18.632 36.332 35.4 53.101 52.169 4.192-0.932 7.453-0.932 8.384-3.727 1.397 2.795-1.397 5.59-3.726 6.056 7.453 4.658 15.837 8.85 27.016 9.781 14.44 0.932 27.948 3.261 40.524 6.522 6.521-1.863 13.042-2.795 20.029-3.261 2.329 0 3.726-3.726 6.521-4.658l0.466-4.658c2.795 4.192 2.329-1.397 0.466-4.192 3.261 2.795 4.192 5.124 5.589 6.987 0-1.397 3.726-6.521 3.727-0.466l0.931-6.055c1.397-0.932 1.863 5.124 3.261 0.931 1.397-4.192 4.192-0.932 6.987-2.329-0.932 1.863-0.466 5.59 2.794 3.261l3.727-3.261c2.329 5.59 6.055 3.261 7.918 2.329 20.495-13.042 40.99-28.413 60.553-43.784l-0.466 6.055 2.329-7.453c2.329 2.329 4.192 0.466 5.124-0.931 2.795-4.658 6.521-9.316 12.577-13.508-7.453 20.029-16.303 35.866-27.482 48.908l-4.658 5.59c0 3.261-0.932 7.453-4.658 7.918-1.863 0.466-5.59-0.932-8.384 1.863-1.397 1.863 3.261 5.59-0.466 2.795-3.261-2.329-6.521 0-10.248 0.932-2.795 0.932 1.863 3.726 2.795 5.589 0.932 1.863 1.863 3.726 1.398 6.056l-5.124-5.59c-6.055 3.261-9.782 9.316-14.906 13.974-2.329 1.863-1.397 5.124-1.397 7.918-3.261 0-6.987-0.932-8.85 0.932-1.397 1.863-0.932 4.658-0.932 7.453-4.658-0.466-5.124-7.453-9.315-6.056-4.192 0.932-8.85 1.397-12.577 3.727 2.795 5.59-4.658 2.329-3.726 3.26-6.987-4.192-13.042-7.453-20.495-4.658-15.837-5.124-35.4-2.795-49.84-0.931 0-2.329 0.466-4.658-0.466-5.124-0.932 2.329-3.726 1.397-3.26 1.397-8.85-6.055-17.7-9.782-27.016-14.905-8.384 0.932-16.303-3.261-18.632-5.59-6.521-6.055-13.974-2.795-20.029-4.192-13.042-3.261-17.7-16.769-19.098-26.084-0.932-4.658-4.658-6.521-6.055-6.056-6.055-19.563-15.371-37.263-22.824-55.429-1.863-4.658-1.397-9.316-1.397-14.44 2.329 0.932 4.658 0.466 4.192-2.794-2.329-15.371-7.918-27.016-13.974-38.195 3.261-15.837 3.726-34.469 11.179-48.443 6.521-12.576 18.632-19.098 27.016-29.811 2.795-3.726 2.795-8.85 5.59-12.11 9.316-9.316 18.632-19.098 28.879-27.482 4.658-3.726 10.247 0 17.234-1.397 2.329-8.384 11.645-15.837 20.495-13.508 3.726 0.932 11.179-8.85 13.508-9.782 3.726-1.397 1.863 3.726 1.863 6.987 8.85-6.987 20.961-10.713 32.14-14.906" fill="#111111" fill-rule="nonzero" stroke="none" stroke-width="1" stroke-linecap="butt" stroke-linejoin="miter" stroke-miterlimit="10" stroke-dasharray="" stroke-dashoffset="0" font-family="none" font-weight="none" font-size="none" text-anchor="none" style="mix-blend-mode: normal" data-fill-palette-color="tertiary"></path></g><g transform="matrix(1,0,0,1,96.95213010791181,90)"><svg viewBox="0 0 126.09573978417636 180" height="180" width="126.09573978417636"><g><svg viewBox="0 0 126.09573978417636 180" height="180" width="126.09573978417636"><g><svg viewBox="0 0 126.09573978417636 180" height="180" width="126.09573978417636"><g id="textblocktransform"><svg viewBox="0 0 126.09573978417636 180" height="180" width="126.09573978417636" id="textblock"><g><svg viewBox="0 0 126.09573978417636 180" height="180" width="126.09573978417636"><g transform="matrix(1,0,0,1,0,0)"><svg width="126.09573978417636" viewBox="2.883333333335 -33.025 22.829166666665 32.58833333333333" height="180" data-palette-color="url(#c840eed5-a946-40ec-8200-613f2bc305d2)"></svg></g></svg></g></svg></g></svg></g></svg></g></svg></g></svg></g><defs></defs><mask id="ac4fdda5-c694-417e-ad0f-bb4139ef7313"><g id="SvgjsG1258"><svg viewBox="0 0 320 360" height="360" width="320"><g><svg></svg></g><g><svg viewBox="0 0 320 360" height="360" width="320"><g><path d="M20.961 227.22l3.726 4.658-1.863-6.056c-0.466-2.795-3.726 0.466-1.863 1.398M25.153 224.425c1.397 2.329 2.795 4.658 2.795 6.987 0 3.261 2.795 4.658 5.123 5.589-3.261-3.726-5.124-13.974-7.918-12.576M204.017 26.929c7.918 0 15.371-0.932 23.756 0.931 20.495 5.124 37.729 15.371 49.374 29.811l32.606 52.169c1.397 13.042 4.192 27.482 3.726 43.319 3.261 0 2.795-4.658 6.521-5.59-3.726 9.316-5.59 20.961-6.521 34.469-2.329-7.453 0-18.632 0.466-24.687-3.261 5.124-5.124 1.397-5.124-0.932 0.466-3.726-1.397-3.261-2.795-4.658-5.124-4.658-8.384-9.782-12.11-17.7 2.329-6.055 2.795-14.905-4.658-19.563-2.329-1.397-5.124-3.726-6.521-7.453-1.863-5.124-5.124-11.179-4.193-19.097 0.466-2.329-6.987 5.124-11.179 1.863-18.166-12.576-36.332-27.016-58.224-39.127-11.645 0-20.029-4.192-24.221-9.316-3.726-4.658-0.932-10.713 4.658-11.179 3.261 0 6.987-0.932 9.782 0.932 0.466-1.863 2.329-4.192 4.657-4.192M157.904 16.215l0.932 0.466c4.658 0.932 6.987 7.453 12.11 5.124 0 3.261 0.466 6.521-0.466 8.85-1.397 3.726-5.59 3.726-8.85 3.726-31.208-1.863-49.374 11.179-68.471 22.358-5.124 3.261-10.713 5.59-14.906 9.782-20.029 18.632-41.921 35.866-47.045 70.335l-4.192 38.195c-0.466 4.192-5.124 8.384-4.192 13.508l3.26 22.824c-3.261-3.261-5.124 0.932-4.192 2.795 0.466 1.397 2.329 6.055 5.124 1.863 3.726 6.987 7.453 20.495 12.576 26.55 15.837 18.632 36.332 35.4 53.101 52.169 4.192-0.932 7.453-0.932 8.384-3.727 1.397 2.795-1.397 5.59-3.726 6.056 7.453 4.658 15.837 8.85 27.016 9.781 14.44 0.932 27.948 3.261 40.524 6.522 6.521-1.863 13.042-2.795 20.029-3.261 2.329 0 3.726-3.726 6.521-4.658l0.466-4.658c2.795 4.192 2.329-1.397 0.466-4.192 3.261 2.795 4.192 5.124 5.589 6.987 0-1.397 3.726-6.521 3.727-0.466l0.931-6.055c1.397-0.932 1.863 5.124 3.261 0.931 1.397-4.192 4.192-0.932 6.987-2.329-0.932 1.863-0.466 5.59 2.794 3.261l3.727-3.261c2.329 5.59 6.055 3.261 7.918 2.329 20.495-13.042 40.99-28.413 60.553-43.784l-0.466 6.055 2.329-7.453c2.329 2.329 4.192 0.466 5.124-0.931 2.795-4.658 6.521-9.316 12.577-13.508-7.453 20.029-16.303 35.866-27.482 48.908l-4.658 5.59c0 3.261-0.932 7.453-4.658 7.918-1.863 0.466-5.59-0.932-8.384 1.863-1.397 1.863 3.261 5.59-0.466 2.795-3.261-2.329-6.521 0-10.248 0.932-2.795 0.932 1.863 3.726 2.795 5.589 0.932 1.863 1.863 3.726 1.398 6.056l-5.124-5.59c-6.055 3.261-9.782 9.316-14.906 13.974-2.329 1.863-1.397 5.124-1.397 7.918-3.261 0-6.987-0.932-8.85 0.932-1.397 1.863-0.932 4.658-0.932 7.453-4.658-0.466-5.124-7.453-9.315-6.056-4.192 0.932-8.85 1.397-12.577 3.727 2.795 5.59-4.658 2.329-3.726 3.26-6.987-4.192-13.042-7.453-20.495-4.658-15.837-5.124-35.4-2.795-49.84-0.931 0-2.329 0.466-4.658-0.466-5.124-0.932 2.329-3.726 1.397-3.26 1.397-8.85-6.055-17.7-9.782-27.016-14.905-8.384 0.932-16.303-3.261-18.632-5.59-6.521-6.055-13.974-2.795-20.029-4.192-13.042-3.261-17.7-16.769-19.098-26.084-0.932-4.658-4.658-6.521-6.055-6.056-6.055-19.563-15.371-37.263-22.824-55.429-1.863-4.658-1.397-9.316-1.397-14.44 2.329 0.932 4.658 0.466 4.192-2.794-2.329-15.371-7.918-27.016-13.974-38.195 3.261-15.837 3.726-34.469 11.179-48.443 6.521-12.576 18.632-19.098 27.016-29.811 2.795-3.726 2.795-8.85 5.59-12.11 9.316-9.316 18.632-19.098 28.879-27.482 4.658-3.726 10.247 0 17.234-1.397 2.329-8.384 11.645-15.837 20.495-13.508 3.726 0.932 11.179-8.85 13.508-9.782 3.726-1.397 1.863 3.726 1.863 6.987 8.85-6.987 20.961-10.713 32.14-14.906" fill="black" fill-rule="nonzero" stroke="none" stroke-width="1" stroke-linecap="butt" stroke-linejoin="miter" stroke-miterlimit="10" stroke-dasharray="" stroke-dashoffset="0" font-family="none" font-weight="none" font-size="none" text-anchor="none" style="mix-blend-mode: normal"></path></g><g transform="matrix(1,0,0,1,96.95213010791181,90)"><svg viewBox="0 0 126.09573978417636 180" height="180" width="126.09573978417636"><g><svg viewBox="0 0 126.09573978417636 180" height="180" width="126.09573978417636"><g><svg viewBox="0 0 126.09573978417636 180" height="180" width="126.09573978417636"><g id="SvgjsG1257"><svg viewBox="0 0 126.09573978417636 180" height="180" width="126.09573978417636" id="SvgjsSvg1256"><g><svg viewBox="0 0 126.09573978417636 180" height="180" width="126.09573978417636"><g transform="matrix(1,0,0,1,0,0)"><svg width="126.09573978417636" viewBox="2.883333333335 -33.025 22.829166666665 32.58833333333333" height="180" data-palette-color="url(#c840eed5-a946-40ec-8200-613f2bc305d2)"><path d="M3.3-8.55L3.3-8.55Q3.4-8.7 3.3-9.25L3.3-9.25Q3.1-11.05 3.25-11.75L3.25-11.75Q3.05-14.45 3.13-14.9 3.2-15.35 3.4-15.4L3.4-15.4Q3.2-15.7 3.03-17.6 2.85-19.5 2.95-20.15L2.95-20.15Q2.85-20.55 2.9-21.13 2.95-21.7 3.05-21.9L3.05-21.9Q2.95-22 2.9-22.65L2.9-22.65 2.9-24.9 3-26.2 3-27.3 3.3-28.85Q3.15-29.1 3.55-29.75L3.55-29.75Q3.05-30.8 4.6-32.35L4.6-32.35Q4.65-32.45 5.75-33L5.75-33Q6.65-33.05 6.98-33 7.3-32.95 7.98-32.9 8.65-32.85 9-32.75L9-32.75Q9.9-32.45 9.9-31.15L9.9-31.15 9.9-30.3Q10-28.5 10-27.6L10-27.6 10-26.5Q10-25.85 9.9-25.75L9.9-25.75Q9.95-25.55 9.9-24.8L9.9-24.8 9.9-23.95Q9.75-22.4 9.8-22.15L9.8-22.15 9.45-19.5Q9.85-19.35 12.3-19.35L12.3-19.35 14.8-19.35Q17-19.35 17.57-19.38 18.15-19.4 18.32-19.7 18.5-20 18.6-20.5 18.7-21 18.75-21.65 18.8-22.3 18.85-22.45L18.85-22.45Q19.15-22.7 19-24.6L19-24.6Q19-24.75 19.2-25.35L19.2-25.35Q19.2-26.05 19.4-26.95L19.4-26.95Q19.4-27.9 19.73-28.63 20.05-29.35 20.2-29.85L20.2-29.85Q20.45-30.7 21.4-31.3L21.4-31.3Q22.65-32.2 23.8-32.45L23.8-32.45 24.7-32.45Q26.05-32.2 25.6-29.9L25.6-29.9Q25.6-29.15 25.2-27.95L25.2-27.95Q24.75-25.6 24.75-24.9L24.75-24.9Q24.75-24.2 24.35-22.35L24.35-22.35Q24.45-21.4 24.38-21.1 24.3-20.8 24.3-20.35L24.3-20.35Q24.2-19.25 24.2-18.85L24.2-18.85Q24.1-17.35 24.1-16.45 24.1-15.55 23.95-14.5L23.95-14.5Q23.95-13.45 23.6-12.35L23.6-12.35 23.45-9.15Q23.45-8.8 23.8-4L23.8-4Q24.1-3.7 24-2.83 23.9-1.95 23.65-1.6 23.4-1.25 23.13-1.2 22.85-1.15 22.3-1.15L22.3-1.15Q21.15-0.5 20.45-0.65L20.45-0.65Q19.85-0.65 19.2-1.05L19.2-1.05Q18.15-1.6 17.85-2.4L17.85-2.4Q17.85-2.75 17.73-3.25 17.6-3.75 17.7-4.33 17.8-4.9 17.78-5.55 17.75-6.2 17.75-7.05L17.75-7.05 17.8-7.65Q17.7-7.85 17.9-8.3 18.1-8.75 17.95-9L17.95-9 17.95-10.35 18.2-12.9Q17.7-13.25 18.15-14.55L18.15-14.55 18.25-14.95Q17.65-14.8 17.15-14.8L17.15-14.8Q15.75-14.45 14.05-14.45L14.05-14.45 9.55-14.6 9.55-14.05Q9.45-13.25 9.5-11.65L9.5-11.65 9.5-10.7Q9.55-9.4 9.55-7L9.55-7Q9.75-4.4 9.75-3.25L9.75-3.25 9.7-2.9Q9.7-2.5 9.6-2.2L9.6-2.2Q9.6-1.25 9.13-0.9 8.65-0.55 7.6-0.45 6.55-0.35 5.7-1L5.7-1Q4.5-1.6 4.45-2 4.4-2.4 4.15-3.05L4.15-3.05Q3.9-3.45 3.8-4L3.8-4Q3.8-5.6 3.75-5.8L3.75-5.8Q3.6-6 3.6-6.5L3.6-6.5Q3.6-7.15 3.3-8.55Z" opacity="1" transform="matrix(1,0,0,1,0,0)" fill="white" class="wordmark-text-0" id="SvgjsPath1255"></path></svg></g></svg></g></svg></g></svg></g></svg></g></svg></g></svg></g><defs><mask></mask></defs></svg><rect width="320" height="360" fill="black" stroke="none" visibility="hidden"></rect></g></mask><linearGradient x1="0" x2="1" y1="0.5" y2="0.5" id="c840eed5-a946-40ec-8200-613f2bc305d2"><stop stop-color="#ffa62e" offset="0"></stop><stop stop-color="#f71b3d" offset="1"></stop></linearGradient><rect width="320.00000000000006" height="360" fill="url(#c840eed5-a946-40ec-8200-613f2bc305d2)" mask="url(#ac4fdda5-c694-417e-ad0f-bb4139ef7313)" data-fill-palette-color="primary"></rect></svg><rect width="320" height="360" fill="none" stroke="none" visibility="hidden"></rect></g></svg></g></svg>